<?xml version="1.0" encoding="utf-8"?>
<!-- Generator: Adobe Illustrator 23.0.3, SVG Export Plug-In . SVG Version: 6.00 Build 0)  -->
<svg version="1.1" id="logo" xmlns="http://www.w3.org/2000/svg" xmlns:xlink="http://www.w3.org/1999/xlink" x="0px" y="0px"
	 viewBox="0 0 566.9 566.9" style="enable-background:new 0 0 566.9 566.9;" xml:space="preserve">
<style type="text/css">
	.st0{fill:#DFF7FF;}
</style>
<rect id="background" class="st0" width="566.9" height="566.9"/>
<path id="text" d="M270.2,161L270.2,161v22.4c0,2.6-0.9,4.5-2.6,6.2s-3.9,2.6-6.2,2.6c-2.6,0-4.7-0.9-6.5-2.6
	c-1.7-1.7-2.6-3.9-2.6-6.2l0,0V161c0-2.6,0.9-4.5,2.6-6.5c1.7-1.9,3.9-2.6,6.5-2.6c2.4,0,4.5,0.9,6.2,2.6
	C269.4,156.3,270.2,158.6,270.2,161z M207.5,308.1v-26.7h-35.9c-2.4,0-4.5-0.9-6.2-2.6s-2.6-3.9-2.6-6.5c0-2.4,0.9-4.5,2.6-6.2
	c1.7-1.7,3.9-2.6,6.2-2.6l0,0h35.9v-26.9h-35.9c-2.4,0-4.5-0.9-6.2-2.6c-1.7-1.7-2.6-3.9-2.6-6.2c0-2.6,0.9-4.5,2.6-6.5
	c1.7-1.7,3.9-2.6,6.2-2.6l0,0h44.7h22.4c8.8,0,16.1,3,22.1,9c6,6,9,13.5,9,22.1l0,0v22.4v22.4c0,8.6-3,16.1-9,22.1s-13.5,9-22.1,9
	l0,0h-13.3v102.6c0,2.4-0.9,4.5-2.6,6.2c-1.7,1.7-3.9,2.6-6.2,2.6c-2.6,0-4.5-0.9-6.2-2.6s-2.6-3.9-2.6-6.2l0,0V325.9h-36.1
	c-2.4,0-4.5-0.9-6.2-2.6s-2.6-3.9-2.6-6.2c0-2.6,0.9-4.5,2.6-6.2c1.7-1.7,3.9-2.6,6.2-2.6l0,0L207.5,308.1L207.5,308.1z
	 M225.3,236.9v26.9h26.9v-13.3c0-3.7-1.3-6.9-3.9-9.5c-2.6-2.6-5.8-3.9-9.5-3.9l0,0L225.3,236.9L225.3,236.9z M252.2,294.8v-13.3
	h-26.9v26.9h13.3c3.7,0,6.9-1.3,9.5-3.9C250.9,301.6,252.2,298.4,252.2,294.8L252.2,294.8z M207.5,183.4v-35.5h-13.3
	c-3.7,0-6.9,1.3-9.5,3.9s-3.9,5.8-3.9,9.5l0,0v22.4c0,2.6-0.9,4.5-2.6,6.2c-1.7,1.7-3.9,2.6-6.5,2.6c-2.4,0-4.5-0.9-6.2-2.6
	c-1.7-1.7-2.6-3.9-2.6-6.2l0,0v-22.4c0-8.6,3-16.1,9-22.1s13.5-9,22.1-9l0,0h22.4h44.7c2.4,0,4.5,0.9,6.2,2.6
	c1.7,1.7,2.6,3.9,2.6,6.2c0,2.6-0.9,4.5-2.6,6.5c-1.7,1.9-3.9,2.6-6.2,2.6l0,0h-35.9v35.7c0,2.6-0.9,4.5-2.6,6.2
	c-1.7,1.7-3.9,2.6-6.2,2.6c-2.6,0-4.5-0.9-6.2-2.6C208.3,187.9,207.5,186,207.5,183.4L207.5,183.4z M117.8,392.6H82.1H46.4v35.7
	c0,2.4-0.9,4.5-2.6,6.2c-1.7,1.7-3.9,2.6-6.5,2.6c-2.4,0-4.5-0.9-6.2-2.6s-2.6-3.9-2.6-6.2l0,0v-44.7v-66.7v-22.4
	c0-2.6,0.9-4.5,2.6-6.5c1.7-1.7,3.9-2.6,6.2-2.6c2.6,0,4.7,0.9,6.5,2.6c1.7,1.7,2.6,3.9,2.6,6.5l0,0v13.3h35.7h35.7v-13.3
	c0-2.6,0.9-4.5,2.6-6.5c1.7-1.7,3.9-2.6,6.5-2.6c2.4,0,4.5,0.9,6.2,2.6c1.7,1.7,2.6,3.9,2.6,6.5l0,0v22.4v66.7v44.7
	c0,2.4-0.9,4.5-2.6,6.2c-1.7,1.7-3.9,2.6-6.2,2.6c-2.6,0-4.7-0.9-6.5-2.6c-1.7-1.7-2.6-3.9-2.6-6.2l0,0
	C117.8,428.3,117.8,392.6,117.8,392.6z M46.2,375h26.9v-48.8H46.2V375z M117.8,325.9H90.9v48.8h26.9V325.9z M73.1,263.6v-26.9H37.2
	c-2.4,0-4.5-0.9-6.2-2.6c-1.7-1.7-2.6-3.9-2.6-6.2c0-2.6,0.9-4.5,2.6-6.5c1.7-1.9,3.9-2.6,6.2-2.6l0,0h35.9V192H59.7
	c-8.8,0-16.1-3-22.1-9s-9-13.3-9-22.1l0,0v-22.4c0-2.4,0.9-4.5,2.6-6.2c1.7-1.7,3.9-2.6,6.2-2.6c2.6,0,4.7,0.9,6.5,2.6
	c1.7,1.7,2.6,3.9,2.6,6.2l0,0v22.4c0,3.7,1.3,6.9,3.9,9.5c2.6,2.6,5.8,3.9,9.5,3.9l0,0h13.3v-35.7c0-2.4,0.9-4.5,2.6-6.2
	s3.9-2.6,6.2-2.6c2.4,0,4.5,0.9,6.2,2.6c1.7,1.7,2.6,3.9,2.6,6.2l0,0v35.7H104c3.7,0,6.9-1.3,9.5-3.9s3.9-5.8,3.9-9.5l0,0v-22.4
	c0-2.4,0.9-4.5,2.6-6.2s3.9-2.6,6.5-2.6c2.4,0,4.5,0.9,6.2,2.6c1.7,1.7,2.6,3.9,2.6,6.2l0,0v22.4c0,8.6-3,16.1-9,22.1
	s-13.5,9-22.1,9l0,0H90.7v26.9h35.9c2.4,0,4.5,0.9,6.2,2.6c1.7,1.7,2.6,3.9,2.6,6.5c0,2.4-0.9,4.5-2.6,6.2c-1.7,1.7-3.9,2.6-6.2,2.6
	l0,0H90.7v26.9h35.9c2.4,0,4.5,0.9,6.2,2.6s2.6,3.9,2.6,6.2c0,2.6-0.9,4.5-2.6,6.5c-1.7,1.7-3.9,2.6-6.2,2.6l0,0H81.9H37.2
	c-2.4,0-4.5-0.9-6.2-2.6s-2.6-3.9-2.6-6.5c0-2.4,0.9-4.5,2.6-6.2s3.9-2.6,6.2-2.6l0,0h35.9V263.6z M493.9,272.4v58.5
	c12.7,2.2,23.4,8.4,31.8,18.3c8.6,9.9,12.9,21.5,12.9,34.6l0,0c0,14.8-5.2,27.5-15.7,37.8s-23.2,15.7-38.1,15.7
	c-14.8,0-27.5-5.2-38.1-15.7c-10.5-10.5-15.7-23-15.7-37.8l0,0c0-13.1,4.3-24.7,12.9-34.6s19.1-15.9,31.8-18.3l0,0v-58.5
	c0-2.4,0.9-4.5,2.6-6.2s3.9-2.6,6.2-2.6s4.5,0.9,6.2,2.6C493,267.9,493.9,270,493.9,272.4L493.9,272.4z M510.4,358.4
	c-6.9-6.9-15.5-10.3-25.4-10.3s-18.5,3.4-25.4,10.3s-10.3,15.5-10.3,25.4s3.4,18.3,10.3,25.4c6.9,6.9,15.5,10.3,25.4,10.3
	s18.5-3.4,25.4-10.3s10.3-15.5,10.3-25.4S517.3,365.5,510.4,358.4z M529.8,259.1L529.8,259.1c-8.8,0-16.1-3-22.1-9
	c-6-6-9-13.3-9-22.1l0,0v-89c0-2.4,0.9-4.5,2.6-6.2s3.9-2.6,6.2-2.6c2.6,0,4.7,0.9,6.5,2.6c1.7,1.7,2.6,3.9,2.6,6.2l0,0v89
	c0,3.7,1.3,6.9,3.9,9.5s5.8,3.9,9.5,3.9l0,0c2.4,0,4.5,0.9,6.2,2.6c1.7,1.7,2.6,3.9,2.6,6.2c0,2.6-0.9,4.5-2.6,6.2
	C534.3,258.2,532.3,259.1,529.8,259.1z M440.3,241.4L440.3,241.4c3.7,0,6.9-1.3,9.5-3.9c2.6-2.6,3.9-5.8,3.9-9.5l0,0v-89
	c0-2.4,0.9-4.5,2.6-6.2s3.9-2.6,6.5-2.6c2.4,0,4.5,0.9,6.2,2.6c1.7,1.7,2.6,3.9,2.6,6.2l0,0v89c0,8.6-3,16.1-9,22.1s-13.5,9-22.1,9
	l0,0c-2.4,0-4.5-0.9-6.2-2.6c-1.7-1.7-2.6-3.9-2.6-6.2c0-2.6,0.9-4.5,2.6-6.2C435.6,242.3,437.7,241.4,440.3,241.4z M386.6,264.7
	v-29c-6.5-1.9-11.8-5.8-16.1-11.4c-4.3-5.6-6.2-11.8-6.2-18.7l0,0v-22.4c0-2.6,0.9-4.5,2.6-6.2s3.9-2.6,6.2-2.6
	c2.6,0,4.7,0.9,6.5,2.6c1.7,1.7,2.6,3.9,2.6,6.2l0,0v22.4c0,3.9,1.5,7.3,4.5,10.1l0,0v-76.8c0-2.4,0.9-4.5,2.6-6.2s3.9-2.6,6.5-2.6
	c2.4,0,4.5,0.9,6.2,2.6c1.7,1.7,2.6,3.9,2.6,6.2l0,0v76.8c3-2.8,4.5-6,4.5-10.1l0,0v-22.4c0-2.6,0.9-4.5,2.6-6.2s3.9-2.6,6.2-2.6
	c2.6,0,4.5,0.9,6.2,2.6c1.7,1.7,2.6,3.9,2.6,6.2l0,0v22.4c0,6.9-2.2,13.3-6.2,18.7c-4.3,5.6-9.7,9.2-16.1,11.4l0,0v29
	c6.5,1.9,11.8,5.8,16.1,11.4c4.3,5.6,6.2,11.8,6.2,18.7l0,0v111.4c0,2.6-0.9,4.5-2.6,6.5c-1.7,1.7-3.9,2.6-6.2,2.6
	c-2.6,0-4.5-0.9-6.2-2.6s-2.6-3.9-2.6-6.5l0,0V294.8c0-3.9-1.5-7.3-4.5-10.1l0,0v143.6c0,2.4-0.9,4.5-2.6,6.2s-3.9,2.6-6.2,2.6
	c-2.6,0-4.7-0.9-6.5-2.6c-1.7-1.7-2.6-3.9-2.6-6.2l0,0V284.6c-3,2.8-4.5,6-4.5,10.1l0,0v111.4c0,2.6-0.9,4.5-2.6,6.5
	c-1.7,1.7-3.9,2.6-6.5,2.6c-2.4,0-4.5-0.9-6.2-2.6s-2.6-3.9-2.6-6.5l0,0V294.8c0-6.9,2.2-13.3,6.2-18.7
	C374.7,270.5,380.1,266.6,386.6,264.7L386.6,264.7z M305.9,308.1L305.9,308.1h44.7c2.6,0,4.5,0.9,6.2,2.6s2.6,3.9,2.6,6.2
	c0,2.6-0.9,4.5-2.6,6.2s-3.9,2.6-6.2,2.6l0,0h-44.7c-2.4,0-4.5-0.9-6.2-2.6s-2.6-3.9-2.6-6.2c0-2.6,0.9-4.5,2.6-6.2
	C301.4,308.9,303.6,308.1,305.9,308.1z M305.9,241.4L305.9,241.4h44.7c2.6,0,4.5,0.9,6.2,2.6c1.7,1.7,2.6,3.9,2.6,6.2
	c0,2.6-0.9,4.5-2.6,6.2c-1.7,1.7-3.9,2.6-6.2,2.6l0,0h-44.7c-2.4,0-4.5-0.9-6.2-2.6c-1.7-1.7-2.6-3.9-2.6-6.2c0-2.6,0.9-4.5,2.6-6.2
	S303.6,241.4,305.9,241.4z"/>
</svg>
