<?xml version="1.0" encoding="utf-8"?>
<!-- Generator: Adobe Illustrator 23.0.3, SVG Export Plug-In . SVG Version: 6.00 Build 0)  -->
<svg version="1.1" id="图层_1" xmlns="http://www.w3.org/2000/svg" xmlns:xlink="http://www.w3.org/1999/xlink" x="0px" y="0px"
	 viewBox="0 0 850.4 850.4" style="enable-background:new 0 0 850.4 850.4;" xml:space="preserve">
<style type="text/css">
	.st0{fill:none;stroke:#000000;stroke-width:20;stroke-miterlimit:10;}
</style>
<path class="st0" d="M751.2,836.2h-652c-47,0-85-38.1-85-85v-652c0-47,38.1-85,85-85h652c47,0,85,38.1,85,85v652
	C836.2,798.1,798.1,836.2,751.2,836.2z"/>
<g>
	<path d="M169.9,136c-2.5-5.3-3.3-9.5-2.5-13.4c0.8-3.8,1.5-5.6,1.8-5.6c0.3,0,3.8,1.4,10.9,3.8l0,0c10.9,4.2,18.7,10.3,22.7,17.6
		c4.3,7.8,6.1,18.6,5.3,32.8l0,0c-0.3,10.6-1.5,17.9-3.6,21.9l0,0c-1.8,3.5-2.1,6-1.5,6.7c0.8,0.7,3.3,0.7,7.1,0l0,0
		c2.8-0.7,4.6-1,5.6-0.3c1.1,0.3,3.3,1.7,5.6,4.5l0,0c3.6,4.2,5.3,7,5.3,7.8l0,0c0,0.7-2.8,3.2-8.8,7.3c-6.1,4.1-9.6,6.3-10.6,6.3
		l0,0c-1.8,0-3.8,2.5-6.3,7.8c-2.5,5.3-4.3,10.3-5.3,15.4l0,0c-1.1,8.5-0.8,13.4,0.3,14.8c1.1,1.4,6.1,2.5,14.1,2.5l0,0
		c12.4,0,23,2.5,31.8,7.3c8.8,5,13.1,10.6,13.1,17.6l0,0c-0.3,2.8-0.8,4.2-1.8,4.5c-1.1,0.3-3.8,0.3-8.6,0.3l0,0
		c-4.6,0-7.8-0.3-9.9-1.4c-2.1-0.7-5.3-3.5-9.9-7.8l0,0c-3.6-3.2-7.8-6.3-12.4-9.1c-4.6-3.2-8.8-5.3-12.1-6.3
		c-3.6-1-5.3-1.4-5.6-0.3l0,0c-0.8,1.4-1.5,9.8-1.8,25l0,0c-2.1,45.8-4.3,71.9-6.3,77.9l0,0c-2.1,5.3-8.1,4.2-18.4-2.5l0,0
		c-6.1-3.8-9.6-6-10.9-6l0,0c-2.5,0-6.1-3.2-10.9-9.5c-5-6.3-7.4-10.9-7.4-13.6l0,0c0-3.8,0.3-6,1.1-6c0.8,0,5,2.5,13.1,7.8
		c8.1,5.3,13.1,6.7,14.4,5l0,0c1.8-1.7,3.6-20.4,6.1-56.3l0,0l1.1-20.7l-17.4,17.6c-11.3,11.6-18,18.9-20.2,21.9
		c-2.2,2.9-7.4,8.5-16.6,16.6c-9.1,8.1-13.8,12.6-14.4,13.4l0,0c-1.8,2-5.6,5.3-11.3,9.5c-6.1,4.2-10.3,7.3-12.7,8.8l0,0
		c-3.8,2-7.1,2-9.6,0.7l0,0c-1.5-1-2.1-2-2.1-3.2c0-0.7,0.8-2.8,2.1-6l0,0c2.1-4.5,14.4-17.9,36.8-40.5c22.4-22.6,35-35.5,38.1-39.8
		c3.3-4.2,8.6-11.3,15.9-21.1c7.4-9.8,10.9-15.1,10.6-15.4c-0.3-0.3-7.1,2.5-20.2,8.1l0,0c-16.2,7-26.5,11.3-30.7,12.3
		c-4.3,1-8.8,0.3-13.4-1.7l0,0c-10.6-4.5-17.4-10.9-19.7-19.4l0,0c-1.1-3.5-1.1-5.3-0.8-6c0.8-0.7,2.5,0,6.1,2l0,0
		c2.5,1,5,0.7,7.8-0.7c2.8-1.4,9.9-2.8,21.2-3.8c11.3-1,21.5-3.5,31-7c9.1-3.5,15.6-6,18.4-7.3l0,0c2.1-0.3,3.3-1.4,3.6-3.2
		c0.3-1.7,0.8-5.6,1.1-11.9l0,0c0.3-9.1-0.3-20.1-2.1-33C174.7,149.6,172.4,140.7,169.9,136L169.9,136z M322.1,108.5
		c1.1-4.5,1.8-7,2.1-7l0,0c1.8,0,7.4,4.5,16.9,13.6c9.6,9.1,14.4,14.8,15.6,16.9l0,0c0.8,2.8,0.8,6.3,0.3,10.9
		c-0.3,4.5-1.5,7.8-2.8,9.1l0,0c-0.8,1.4-1.8,9.1-2.8,23.2l0,0c-0.8,9.5-1.1,15.1-0.8,17.2c0.3,2,1.1,2.8,2.8,2.8l0,0
		c2.8,0,5.3-0.7,7.8-2.5c2.5-1.7,8.6-2.8,18-3.5c9.6-0.7,15.6,0.3,18,2.8l0,0c5.3,5,2.8,8.5-7.4,10.3l0,0
		c-4.6,0.3-10.3,1.7-16.6,3.5c-6.3,1.7-11.3,2.8-14.9,2.8l0,0c-4.6,0-7.4,1.4-8.6,3.8c-1.1,2.5-1.8,8.5-2.1,17.9l0,0l-0.3,18.3
		l6.1,1c3.6,0.7,8.1,3.5,14.1,8.1c6,4.5,11.3,9.5,15.6,14.1l0,0c3.3,4.2,7.8,8.5,13.8,12.3c6.1,4.2,12.1,8.5,17.4,13.1
		c5.3,4.5,10.3,7.3,14.1,8.8c4.3,1.4,7.1,3.2,8.6,5.3l0,0c2.5,4.2-0.3,7-8.1,7.8l0,0c-2.8,0.3-6.1,0.3-9.9,0.3l0,0
		c-9.9,0-18.7-1.7-25.7-5.3l0,0c-5.3-2.8-8.6-5-10.6-7c-1.8-2-4.3-6-7.4-11.9l0,0c-4.6-8.8-9.6-16.6-14.4-23.2
		c-5-6.7-8.6-11.9-10.9-15.9l0,0l-2.5-6l-1.8,12.6c-0.8,8.5-0.8,13.6-0.3,15.4c0.8,1.7,0.3,9.5-1.5,23.2l0,0
		c-3.8,33.5-4.3,56-1.1,67.3l0,0c1.8,5.3,1.8,8.8,0.3,10.3c-1.5,1.7-4.3,1-8.6-1.4l0,0c-3.8-2-6.8-3.2-8.8-3.2l0,0
		c-2.5,0-7.8-3.8-15.6-11.9c-8.1-8.1-11.3-12.6-9.9-14.1l0,0c0.8-0.7,3.6,0,8.6,2.5s8.8,3.8,11.6,4.5l0,0c2.1,0.7,3.3,0.7,3.8,0.3
		c0.8-0.3,1.1-2.5,1.1-5.6l0,0c0-2.8,0-4.5,0.3-5.3s1.1-1,2.1-0.7l0,0c0.3,0.3,1.1,0,1.5-0.3c0.3-0.3,0.8-1.7,0.8-3.8s0-5,0-8.5
		c0-3.5,0-8.5-0.3-14.4l0,0c-0.3-35.3-1.8-53.5-3.8-53.5l0,0c-1.5,0-4.3,3.2-8.1,9.5c-3.8,6.3-6.8,12.3-8.8,17.6l0,0
		c-2.5,5.6-5.3,10.6-8.6,14.4c-3.3,4.2-10.3,11.9-21.5,23.2l0,0l-19.7,19.7l-3.3-3.8c-2.8-3.5-3.6-7-2.8-10.9s2.8-7.3,6.8-10.6l0,0
		c10.6-9.8,20.9-22.2,30.7-37.6l0,0c4.6-7.3,11.3-20.4,20.5-38c8.8-17.9,12.7-27.2,12.1-27.8l0,0c-0.3-0.7-5.3,0.7-14.4,4.2
		c-9.1,3.5-16.2,6.7-20.5,9.1l0,0c-8.1,5-17.4,6-28.2,3.5l0,0c-5-1-9.6-3.2-13.8-6.3c-4.3-3.2-6.8-5.6-6.8-7.3l0,0
		c0-1,3.6-1.4,10.9-1.4c7.4,0,22.2-3.2,44.4-9.5c22.7-6.3,33.8-9.8,34.3-10.3c0.3-0.3,0.8-11.3,1.5-32.5c0.3-21.4-0.3-33.5-2.5-36.6
		l0,0C322.4,125.2,320.6,117.4,322.1,108.5L322.1,108.5z M604.7,305.5c1.8-2,4.3-3.2,7.8-3.5s6.1,0.3,7.8,2.8l0,0
		c2.1,2,11.3,3.8,28.5,5.6l0,0c3.8,0.3,6.3,0.7,7.1,1.4c0.8,0.7,1.5,2,1.5,4.2l0,0c0,3.5-1.1,8.8-3.3,16.6
		c-2.1,7.3-3.8,13.1-5.6,16.6l0,0c-2.1,3.5-3.8,8.8-5.3,15.1c-1.8,6.3-4.3,11.9-7.8,17.2l0,0c-6.1,7.3-9.9,9.8-12.4,7.3l0,0
		c-0.3-0.7-0.3-1.4-0.3-2.5l0,0c0-4.2-5.3-11.9-15.6-22.9l0,0c-1.8-2-2.1-3.2-0.8-3.2l0,0c1.1,0,3.8,0.3,9.1,0.7l0,0l12.1,1.4
		l4.3-15.4c3.8-12.6,6.1-20.4,6.3-22.9c0.3-2.8-1.1-4.2-3.6-5.3l0,0c-8.1-2.5-13.4-2-15.9,1l0,0c-1.5,1-4.6,5.3-9.9,11.9
		c-5.3,6.6-8.8,11.6-10.9,14.4c-2.1,2.8-4.3,6-6.3,9.1l0,0c-6.1,8.8-13.8,18.3-23.3,28.9c-9.9,10.6-17.7,17.6-23.7,21.1l0,0
		c-5,2.8-7.4,4.5-7.4,6c0,1-1.8,1.7-5.3,1.7s-5.3-1-5.3-2.8l0,0c0-3.2,6.8-12.3,20.5-27.8l0,0c11.3-12.6,21.2-24.7,30.3-36.3
		c9.1-11.6,13.4-18.3,13.4-20.1l0,0c0-1-1.8-1-5.3-0.3l0,0l-14.1,2.8c-6.1,1-10.3,2-12.7,3.5c-2.5,1.4-4.3,1-5.6-0.7
		c-1.5-1.7-3.3-2.8-5.3-3.8c-2.1-0.7-3.3-3.2-3.3-6.3l0,0c0-1.7,0.3-2.8,0.8-3.2c0.3-0.3,1.5-0.3,3.3,0l0,0c2.5,1,4.6,0.7,6.3-0.7
		l0,0c1.8-1,7.1-2.8,15.6-4.5c8.6-2,15.6-2.8,20.9-2.8l0,0C597.6,309.5,602.2,308,604.7,305.5L604.7,305.5z M490.3,142.1
		c2.8-2,5-3.2,6.3-3.2c1.1,0,2.8,1,4.3,3.2l0,0c4.3,6.3,4.3,12.3,0.8,17.6l0,0c-1.8,2.5-3.8,7-6.3,13.6l0,0
		c-7.4,22.5-12.4,33.8-15.6,34.1l0,0c-2.1,0-4.3,0.3-6.1,1.4l0,0c-1.1,0.7-2.8,0-4.6-1.7c-2.1-2-2.5-3.5-1.1-4.5l0,0
		c0.3-1,0-2.8-1.1-5.3c-1.1-2.5-2.5-5.6-4.6-10.3l0,0c-1.8-3.8-2.1-6.7-1.5-8.5c0.8-1.7,6.3-9.5,16.2-22.9l0,0
		C483,149.6,487.2,144.9,490.3,142.1L490.3,142.1z M593.1,109.7c1.8-1.7,3.3-2.5,4.6-1.7c1.5,0.3,3.8,2.5,7.4,6.3l0,0l7.1,7.8
		l11.6-1.7c28.5-4.2,54.4-5.6,77.9-4.5l0,0c14.1,0.3,24,1.4,29.3,2.5c5.3,1,9.6,3.2,12.4,6.7l0,0c1.5,2,1.5,3.8-0.8,4.5
		c-1.8,0.7-2.5,1.7-2.5,3.2l0,0c0.8,2-0.3,3.8-3.3,5.3c-2.8,1-7.4,2-13.4,2l0,0c-6.8,0.3-12.7,1.4-18,3.8l0,0c-4.3,1.4-7.8,2-11.3,2
		c-3.3,0-5.3-0.7-5.6-2.5l0,0c-0.3-1.4,1.1-4.2,4.3-8.1c3.2-3.8,4.6-6.3,3.6-7l0,0c-1.1-1-6.1-1.4-14.4-1
		c-8.6,0.3-13.8,1.4-15.6,2.5l0,0c-1.8,1.7-3.3,1.7-3.8,0c-1.1-1.7-2.5-0.3-4.3,4.2c-1.8,4.5-4.6,8.8-7.8,13.4l0,0
		c-2.8,3.5-5.6,7.8-8.1,12.6c-2.5,5-3.6,7.3-2.8,8.1c0.8,0.3,5.6,1,14.4,1.4c8.8,0.3,15.6,1.4,19.7,2.8l0,0c2.1,0.3,3.6,1,4.3,2
		c0.8,0.7,1.1,2,0.8,3.5l0,0c-0.8,2.8-1.1,4.5-1.1,6.3l0,0c-0.3,1.7-3.8,2.8-10.3,3.2c-6.3,0.3-12.1,0.3-16.2-0.7l0,0
		c-3.6-1.4-8.1-4.5-14.1-9.8c-6-5.3-9.1-8.5-9.1-10.3l0,0c0-1,1.5-7,4.6-17.6c3.3-10.6,4.3-16.1,3.6-17.2l0,0
		c-0.3-1-2.1-1.4-6.1-0.7c-3.8,0.7-6.8,1.4-9.1,2.5l0,0c-2.8,1.4-5.6,16.9-9.1,46.1l0,0c-1.5,10.3-3.3,16.6-4.6,19.4l0,0
		c-0.8,1.4-1.5,3.2-2.1,5.6c-0.8,2-0.8,4.2-0.8,5.6c0,1.7,0.3,2.5,1.1,2.5l0,0c1.8,0,4.6-1.4,8.8-3.8c4.3-2.5,7.8-5.3,10.9-8.5l0,0
		c5.3-4.2,9.1-7,12.1-8.1c2.8-1,6.1-0.7,9.6,0.3l0,0c3.6,1.4,5.6,3.2,5.6,5c0,1.7-2.1,4.5-6.1,8.1c-3.8,3.5-6.8,5.6-8.8,5.6l0,0
		c-1.8,0-3.8,1.4-6.3,3.8c-2.5,2.8-4.3,5.3-5.3,8.1l0,0c-0.8,2-6.1,8.5-15.9,18.9c-9.9,10.6-14.4,16.1-14.4,16.9s2.5,1.7,7.8,3.2
		l0,0c16.2,3.8,28.5,7.3,37.8,10.9c9.1,3.2,23.3,9.5,43.1,18.6l0,0c8.6,3.5,13.8,5.6,15.2,5.6c1.5,0,6.8,2,15.9,6.7
		c9.1,4.5,21.2,8.1,36.3,11.3l0,0c10.6,2.5,18.4,4.5,22.7,6.7c4.3,2,6.1,4.2,5,6.7l0,0c-1.1,2-3.8,3.5-8.6,5
		c-4.6,1.4-9.1,1.7-13.8,1l0,0c-16.9-1.7-30.3-4.2-40.3-8.1l0,0c-14.9-6-38.1-18.3-69.8-37.3l0,0c-6.8-4.2-12.4-7-16.6-8.8
		c-4.3-1.7-12.4-4.2-24-7.3l0,0c-4.3-1-8.1-1.7-11.6-2c-3.3-0.3-5.6-0.7-7.4,0c-1.8,0.3-2.5,1-2.5,2l0,0c0,2.5-7.8,10.3-23,22.9
		c-15.6,12.6-29.7,23.2-42.4,32l0,0c-27.2,17.6-43.8,26.7-50.2,26.7l0,0c-12.7,0-4.3-9.8,25.7-29.2l0,0
		c19.1-12.6,32.1-21.4,38.8-26.7c6.8-5.3,13.8-10.9,20.5-17.6l0,0c8.6-8.5,11.3-13.4,8.6-14.1l0,0c-1.1-0.3-3.3-0.3-6.1-0.3l0,0
		c-2.8,0-6.1-1.4-9.9-4.5c-3.8-3.2-6.1-5.6-6.1-7.8l0,0c0-1.7,0.3-2.5,1.5-2.5l0,0c0.8-0.3,1.1-1,1.1-2.5s-0.3-3.2-1.1-5.6
		c-0.8-2.5-1.8-4.2-2.8-6.3c-1.1-1.7-1.5-3.5,0-5.3c1.1-1.7,5-5.3,12.1-10.9l0,0c9.1-8.5,14.9-12.3,16.6-12.3l0,0
		c1.1,0,2.5,1.7,3.6,5.6c1.1,3.8,1.5,7,0.3,10.3l0,0c-0.3,2.5,0,3.5,1.8,3.2l0,0c1.8,0,6.8-2,14.4-6.7l0,0
		c9.1-4.5,13.4-7.8,13.1-9.5l0,0c0-0.3-0.3-1-1.5-1.7l0,0c-1.5-0.7-3.8-4.2-7.4-10.3c-3.6-6-5-10.9-3.8-15.1l0,0
		c1.5-3.5,2.1-11.6,2.5-23.9c0-12.3-0.3-18.9-1.5-19.4l0,0c-1.1-0.3-5.6,0.7-13.8,2.5l0,0c-5.3,1.7-8.8,2.8-9.9,3.8
		c-1.1,0.7-2.1,2.5-2.5,5.3l0,0c0,6.3-0.3,9.5-1.5,9.5l0,0c0,0-0.3-0.3-1.1-0.7l0,0c-0.3,0-0.8,0.7-1.1,2c-0.3,1.3-0.3,3.5-0.3,6.7
		l0,0c0,6,0.3,9.1,1.1,9.1s5.3-2.5,13.8-7l0,0c9.1-5.6,13.8-7.3,13.8-5.3l0,0c0.3,1.7-2.5,5.3-8.6,10.3l0,0
		c-6.1,5.3-11.3,11.6-15.9,18.6c-4.3,7-7.1,10.9-7.4,10.9c-0.8,0-2.8-3.2-6.3-9.8l0,0c-4.3-7.3-8.1-19.7-11.6-37l0,0
		c-0.8-2-1.5-3.5-2.1-4.2c-0.8-0.7-2.5-0.7-5.3,0l0,0c-2.8,0.3-6.3,0-9.9-1.4c-3.8-1.4-6.3-3.2-7.8-5.3l0,0c-0.8-1-0.3-1.7,0.8-2.5
		c1.1-0.7,3.6-1.7,7.1-2.8l0,0c6.8-1.7,9.9-4.2,10.3-7.3l0,0c0.3-1.7,1.1-2.8,2.1-3.2c0.8-0.3,3.3-0.3,6.8,0.3l0,0
		c5.3,0.7,9.1,1,12.1,0.7c2.8-0.3,9.9-1.4,20.9-3.5l0,0l19.7-4.5v-7.3C590.6,113.8,591.6,110.8,593.1,109.7L593.1,109.7z
		 M576.2,255.2c1.8-1,6.1-5.6,13.1-14.1c7.1-8.5,10.6-13.1,10.3-13.4s-6.1,2.8-16.9,9.1c-10.9,6.7-18,9.8-20.5,9.8l0,0
		c-4.3,0.7-7.1,2-8.6,4.2l0,0c1.1,0.3,5,1.4,11.3,2.5C571.2,255.2,575,255.5,576.2,255.2L576.2,255.2z M550.3,88.1
		c2.8,0,12.4-1.4,28.2-4.5c15.9-3.2,25.5-6,28.5-9.1c3.3-3.2,6.1-4.2,8.1-3.2c2.5,0.7,6.8,1.7,13.4,2.5l0,0c5.3,0.7,8.6,1.4,9.6,2
		c1.1,0.7,1.8,2.5,2.5,6l0,0c0.3,2,0.8,3.8,0,4.5c-0.3,0.7-1.5,1.4-3.6,2l0,0c-5.6,2-14.4,4.2-26.5,6.7c-12.1,2-22.7,3.5-31.8,3.5
		l0,0c-13.1,0.7-21.5,0-25.7-1.7l0,0c-7.1-3.8-9.1-6.3-6.1-7.8l0,0C548.5,88.6,549.3,88.1,550.3,88.1L550.3,88.1z"/>
	<path d="M152.8,631.1c0-0.3,2.8-0.7,8.1-0.7l0,0c4.3,0,7.1,0.7,8.8,2.5c1.8,1.7,1.8,3.5,0,6l0,0c-1.1,1.7-2.8,19.4-5.3,52.3l0,0
		c-0.3,9.1,0.8,20.7,3.3,34.1l0,0c3.6,22.5,4.3,34.4,1.8,36.1l0,0c-1.1,0.8-4.3-1.7-10.2-7.3l0,0l-8.8-8.1l-0.3-25.7
		c0-16.9,0-26.3,0-28.5l0,0C151.5,656.8,152.1,636.4,152.8,631.1L152.8,631.1z M341.9,515.1c6.1,0,9.6-0.7,10.2-2
		c0.6-1.3,2.1-1.4,4.3-0.8c2.1,1,5,1.4,9.1,1.4c4.3,0,7.8,1.7,10.2,5.6l0,0c5.3,6.6,3.6,11.3-5.3,13.6l0,0
		c-5.3,1.4-8.8,2.8-10.9,3.5l0,0l-7.1,3.5c-2.5,1-4.6,1.7-6.3,1.7l0,0c-0.8,0-2.5,0.8-5.3,2.5c-2.8,1.4-5.3,3.2-7.4,4.8
		c-2.1,1.6-3.3,2.8-2.8,2.8l0,0c0.3,0.3,4.3,0.3,12.4-1c8.1-1,17.7-1,28.8,0l0,0c19.4,1.7,31,6.6,35.2,15.4l0,0
		c1.1,2.8,1.8,4.5,1.5,5.3c-0.3,0.8-2.1,2.5-5.6,5.3l0,0c-4.6,4.2-7.1,8.4-7.1,13.4c0,4.5-0.3,7.8-1.5,9.1l0,0
		c-1.5,2-2.8,7-4.6,15.4c-1.5,8.4-1.8,12.9-0.3,14.4l0,0c1.1,1.7,0,5.6-3.3,11.6l0,0l-4.3,9.5l-4.3-5.3c-1.8-2-3.3-3.5-4.3-3.8
		c-1.1-0.3-3.3-0.3-6.1,0.3l0,0c-4.3,1.4-8.1,2.5-11.3,3.2c-3.3,0.7-5,2.8-6.1,7c-0.8,3.8-0.3,11.3,1.1,21.7l0,0
		c1.1,7.3,1.5,20.4,1.8,38.9c0,18.6-0.3,30.8-1.1,37.6l0,0c-0.3,4.2-1.5,6.6-2.5,7s-3.8-1.4-7.8-4.5l0,0c-4.3-4.5-7.8-7.3-10.6-8.4
		l0,0c-3.6-0.8-5.3-2-5.3-3.8c0-1.7,1.8-3.5,5.3-5.6l0,0c4.3-2.5,6.6-6.6,7.4-12.3l0,0c1.1-8.8,1.5-22.2,0.3-40.4
		c-0.8-17.9-2.1-28.1-3.8-29.5l0,0c-0.8-0.7-7.4,1-20,5.3c-12.7,4.2-21.5,6.6-26.5,7.8c-5.3,0.8-9.9,2.8-14.1,6l0,0
		c-3.8,2.5-6.6,3.5-8.1,3.2c-1.5-0.3-2.8-2-3.8-5.3l0,0c-1.1-2.8-3.6-4.5-6.6-5.6l0,0c-2.1-0.8-3.3-1.4-3.6-2.5
		c-0.3-0.7-0.8-2.5-0.3-4.8l0,0l0.3-5.6l11.9,0.3c8.1,0.3,16.6-0.3,26-2.5l0,0l29.3-6l15.9-3.2l0.8-15.9c0.3-7.3,0-12.3-0.3-13.6
		c-0.3-1.7-1.5-2.5-3.3-2.5l0,0c-2.5,0-8.1,1.4-17.2,3.8c-9.1,2.8-15.5,5.3-19.4,7.3l0,0c-4.6,2-9.1,3.5-13.4,4.2l0,0
		c-3.3,0.3-5.3,0.7-6.1,0.3c-0.8-0.4-1.1-1-1.1-2.8l0,0c0-2-2.1-5.3-6.1-8.8c-3.8-3.8-5.6-6.3-4.6-7l0,0c1.1-1.4,4.3-2.5,9.6-2.8
		c5.3-0.3,9.1-0.3,11.3,0.8l0,0c2.8,1,10.9,0,23.5-3.2c13.1-3.2,19.4-5.6,19.4-7.3l0,0c0-1.4-0.8-2.8-2.5-4.2l0,0
		c-2.1-1.7-2.8-3.5-2.8-6c0-2,1.1-3.5,3.3-4.2l0,0c2.5-0.3,6.1,0.3,10.9,2c5,1.7,8.1,4.2,10.6,6.6l0,0c1.1,1.7,2.1,2.8,2.8,2.8
		c1.1,0.3,2.5-0.3,3.8-1.4l0,0c3.3-1,8.1-2,14.4-2.5l0,0l10.2-0.3l0.8-7.8c0.8-6,0.3-9.8-0.8-11.9c-1.1-2-3.6-3.2-7.4-3.2l0,0
		c-4.3,0-7.8,0.7-10.6,2c-2.5,1.4-7.8,2.5-15.9,3.8c-7.8,1-14.1,3.2-18.7,5.6l0,0c-11.9,6-20.5,8.8-25.7,9.1l0,0
		c-1.8,0-3.3-1.7-4.3-5.6c-1.1-3.8-3.3-6.3-5.6-7l0,0c-2.1-1.4-3.3-3.2-3.3-5.6c-0.3-2,0.3-4.2,2.1-6l0,0c2.1-1,5.3-1.4,8.8-0.3l0,0
		c3.3,1,6.3,1.4,9.6,0.7c3.3-0.7,4.6-2,4.6-4.2l0,0c0-1.7,3.8-7.3,11.3-16.9l0,0c6.1-7.3,9.1-12.3,10.2-14.4c0.8-2,0.3-3.5-1.1-4.2
		l0,0C333.1,516.9,335.6,515.4,341.9,515.1L341.9,515.1z M378.2,603.8c-0.3-2-2.8-2.8-7.4-2.5c-4.6,0.3-8.1,1.4-10.2,3.5l0,0
		c-2.1,1.7-3.3,3.5-3.6,5.3c-0.3,1.7-1.1,5.6-1.5,11.3l0,0c-0.3,8.8,0.3,12.9,1.8,12.9l0,0c1.1,0,2.8-0.8,5.6-2
		c2.8-1.4,4.6-2.5,5.6-3.2l0,0c0.3-0.8,2.1-1.7,4.6-2.8l0,0c1.8-1,3.3-4.5,5-10.1C379.3,610.1,379.6,606.1,378.2,603.8L378.2,603.8z
		 M321.2,466.6c3.8-1,6.3-0.7,7.1,0.7c0.8,1.4,2.5,2.5,5,3.8l0,0c5.3,2,8.8,4.2,10.9,6.3c2.1,2,3.3,4.2,2.5,6l0,0
		c-0.3,1.4,0,2.8,1.8,3.8l0,0c3.3,3.2,3.6,5.3,0.8,6l0,0c-1.8,0-3.3,1.4-4.3,3.8c-1.1,2.8-3.8,3.8-8.1,3.8l0,0
		c-3.6,0-8.1,0.7-14.1,2.5c-6.1,1.4-9.6,2.8-11.3,4.2l0,0c-1.1,1-2.8,1.4-5.3,1.4c-2.5,0-5.3,1-8.4,3.5c-3.3,2.5-5.3,3.5-7.1,3.5
		c-1.8,0-3.6,0.7-5.6,2.5l0,0c-4.3,2.5-6.3,2-6.3-1.4l0,0c0-2.5,1.1-6,2.8-10.1l0,0c2.5-5.6,8.8-13.6,18.7-23.9
		C310.9,472.9,318,467.4,321.2,466.6L321.2,466.6z M185.9,454l1.8-4.5l8.8,3.5c16.2,7,24.3,14.4,24.3,21.7l0,0
		c0,5.3,2.1,7.8,6.1,8.4l0,0c0.3,0,3.3,2.5,8.4,7l0,0c8.1,7.3,9.6,11.9,4.6,13.4l0,0c-14.4,4.2-23.5,8.1-26.8,10.9l0,0
		c-2.1,2-3.3,6.3-3.6,12.3l0,0l-0.3,9.1l6.3,0.8c4.3,0.3,9.1,0,13.7-1.7l0,0c3.6-1,5.6-1.4,6.6-1c1.1,0.3,3.3,2,6.3,5.3l0,0
		c4.3,3.8,6.3,6.6,6.3,8.1l0,0c0,3.5-7.8,6-23,8.1l0,0c-9.1,1.4-14.1,2.8-15.5,3.5l0,0c-1.5,0.8-2.8,3.2-3.8,7.8
		c-1.1,4.2-1.8,8.1-1.8,11.3l0,0c0,2.5,1.1,3.2,3.3,2.5c2.1-0.8,6.3-1.7,12.4-3.2c6.3-1,9.6-2.5,10.2-3.2c0.8-1,6.3-1,16.9,0l0,0
		c8.4,0.8,14.4,1.7,18,3.2c3.6,1.4,4.3,3.5,2.8,6.3l0,0c-0.8,1.7-3.8,2.8-9.9,3.8c-5.6,0.8-11.6,1-18,0.3l0,0
		c-13.1-1.7-24,0.3-32.4,6.6l0,0c-3.6,2.5-5.3,5.6-5.3,9.5l0,0v7h9.6c6.6,0,11.3,1.4,14.1,4.5c2.8,3.2,4.3,8.4,3.8,16.4
		c-0.5,8.1-1.1,13.6-2.1,17.6l0,0c-3.8,10.9-5,36.9-3.3,78l0,0c0.8,11.3,1.1,20,1.1,26.7s-0.3,11.9-0.8,15.9
		c-0.5,3.9-1.1,6.3-1.8,7.8c-0.8,1-1.8,1.7-3.3,1.4l0,0c-2.1-0.8-5.6-5.6-10.6-15.1c-5-9.1-7.8-16.4-8.4-21.4l0,0
		c-0.8-4.2-0.8-6.6,0-7c0.8-0.5,2.5,1.4,5.3,5.3c2.5,3.8,4.3,5.6,5.3,5.3c1.1,0,1.5-2,0.8-6.3l0,0c-0.8-4.8-1.1-9.5-1.1-13.6l0,0
		c0-3.5-0.3-5.6-1.1-6.3c-0.8-0.7-2.5-1-5.6-1l0,0c-3.8,0-10.9-2-21.2-6c-10.2-3.8-15.5-6.6-15.9-8.4l0,0c-0.3-0.8,0-1.4,1.1-1.7
		c0.8-0.3,1.8-0.7,3.3-1l0,0c3.6-0.8,7.1-1.7,11.3-3.2l0,0c3.6-1,7.8-0.7,12.4,1c4.6,1.7,8.4,4.5,11.9,8.4l0,0l3.8,4.2v-10.6
		c0-7.3-0.3-14.1-1.1-20l0,0c-0.8-4.2-1.5-6.6-2.1-7.3c-0.8-0.8-2.1-1.4-4.6-1.4l0,0c-3.6,0-6.1-1-6.6-3.2c-0.8-2-3.8-4.8-9.1-8.4
		l0,0c-3.8-2.8-6.1-4.2-6.6-5.3c-0.3-0.7,0-1.7,1.8-2.8l0,0c2.1-1.7,7.1-2,15.2-1.4l0,0l10.9,0.3v-12.9c0-9.1-0.8-13.6-1.8-14.4
		c-1.1-0.8-4.3,0.3-8.8,3.2l0,0c-3.6,1.7-6.1,2.5-7.8,2.8c-1.8,0-5-0.3-9.9-1.4l0,0l-10.6-2.5l13.1-6.3c8.4-4.2,12.7-6.6,12.7-7.8
		l0,0c0-3.5-3.6-6.3-10.2-8.8l0,0c-2.8-1-5.3-1.4-7.1-1c-1.8,0.4-4.6,1.4-8.4,3.2l0,0c-27.5,14.4-47.5,23.2-60.6,27l0,0
		c-10.9,3.2-17.7,3.5-20.5,0.7l0,0c-1.8-2-4.6-4.5-9.1-7l0,0c-3.3-1.7-5.6-3.5-7.4-5.6c-1.8-2-2.1-3.5-1.1-4.5l0,0
		c0.8-0.3,5.3-1.4,13.4-2.5l0,0c14.4-1.7,32.4-5.3,52.8-10.6l0,0c18-4.2,30.3-10.9,36.6-19.4l0,0c4.6-7.3,6.1-12.6,4.3-15.4l0,0
		c-0.3-0.3-0.8-0.8-1.1-0.8l0,0c-1.1,0-9.1,2.8-23.3,8.1c-14.4,5.6-21.8,7.3-22.2,5.6c-0.3-1.7-0.3-3.5,0.3-5.6c0.6-2,0-4.8-2.1-8.8
		l0,0c-2.1-4.5-2.1-7.8-0.3-8.8c1.8-1.4,7.1-2,15.5-2.5l0,0c9.6,0,18-1.4,25.7-4.5l0,0l10.9-4.2l0.3-10.9c0.3-6.3,0-9.5-1.1-9.5l0,0
		c-0.3,0-0.8,0-1.5,0.3l0,0c-2.1,0.7-7.1,2-15.2,3.8l0,0c-4.3,1.4-7.8,2-9.6,2s-4.6-0.8-8.4-2.5l0,0c-11.3-5.3-19.4-10.9-24-17.9
		l0,0c-1.8-2.8-1.5-4.2,1.1-4.5l0,0c16.2-1.7,32.1-4.8,47.5-9.5l0,0l13.7-4.8l1.1-15.1c0.8-9.5,0.8-15.1-0.8-17.2
		C184.6,459.3,184.6,456.8,185.9,454L185.9,454z M479.6,641.7c6.1-8.4,9.1-10.6,9.1-6.3l0,0c-0.3,2.8-2.1,7.3-5.6,14.4l0,0
		c-3.6,7.3-5.3,11.9-5.3,14.1c0,2.2-2.8,7.3-8.1,15.9c-5.6,8.4-8.1,13.6-8.1,15.9c0,2.2-1.1,3.8-3.3,5.6c-2.1,1.4-4.3,4.2-6.1,8.1
		l0,0c-1.5,2.8-3.8,4.2-6.6,4.5c-3.3,0.3-6.1-0.3-8.8-2.8l0,0c-2.8-2-4.6-5.6-4.6-10.9c0-5.3,1.1-8.4,3.8-9.5l0,0
		c2.5-0.3,4.6-2.8,6.6-7l0,0c2.1-3.8,7.4-10.6,15.5-20c8.1-9.5,12.7-14.1,13.7-14.4l0,0C473,649.5,475.8,647,479.6,641.7
		L479.6,641.7z M704.7,605.1c3.3-0.3,5.3-0.8,6.1-1c0.8-0.3,2.5,0,4.6,1.4c2.1,1,5,2,7.8,2.8c3.3,0.7,5.6,1.7,8.1,3.5l0,0
		c1.8,1.4,2.5,2.5,2.5,3.5c0,0.7-1.8,2.5-5.3,4.8l0,0c-4.3,3.5-7.4,5.6-9.1,6c-2.1,0.3-5,2.5-8.1,7c-3.3,4.5-9.9,11.6-19.7,21.4l0,0
		c-2.8,2.8-5.3,5.3-7.4,7.3c-2.5,2-3.8,3.8-5.3,5.3c-1.1,1.4-1.8,2-1.8,2l0,0c0.3,0.3,4.3-0.3,11.6-2.5l0,0l20.5-6.3
		c6.1-1.7,9.1-3.2,8.8-4.2l0,0c-0.3-1.7,0.3-3.2,2.5-4.2c2.1-1,4.3-1.4,6.6-1l0,0c2.8,0.7,7.4,4.2,13.7,10.6l0,0
		c3.8,4.2,6.3,7.8,7.8,9.8c1.1,2,2.1,5.3,2.8,9.5l0,0c0.8,6.6,2.5,11.6,5.6,15.1c2.8,3.5,4.3,5.6,4.3,7s-3.6,2.5-10.2,3.2l0,0
		c-8.1,1-14.1-0.3-18-3.5c-3.8-3.5-6.6-9.8-8.8-19.7l0,0c-1.5-6.6-2.5-10.1-2.8-10.1s-3.3,1.4-8.4,4.2c-5.3,2.8-9.1,4.2-11.6,4.2
		c-2.5,0-6.1,1.4-10.2,4.2l0,0c-4.6,2.8-10.6,5.3-18.4,7.3c-7.4,2-13.1,2.8-16.2,2.8l0,0c-3.6-0.8-7.4-2.5-11.6-5.3l0,0
		c-7.4-4.5-7.4-11.3,0-20l0,0l12.4-15.1c4.3-5.3,10.2-11.3,17.2-18.6c7.1-7.3,10.9-11.3,10.9-11.9l0,0c0-1.7,2.5-5.3,7.8-10.6
		C698.9,608.6,702.5,605.5,704.7,605.1L704.7,605.1z M646.9,567.9c2.8-2.5,8.8-2,18,1.4l0,0c2.5,1,3.8,1.7,4.3,2.8
		c0.3,0.7,0.3,3.2-0.3,7.3l0,0c-1.1,6-3.6,10.9-7.4,15.1s-7.4,9.8-10.9,16.4l0,0c-1.8,3.5-3.6,7-6.1,10.6c-2.1,3.2-4.3,5.6-6.1,7.3
		c-1.8,1.7-2.8,2-3.6,1.4l0,0c-1.1-1-1.5-5.3-1.5-12.6l0,0c0-6.3,1.8-15.9,5.3-28.5C642.4,576.7,645.1,569.7,646.9,567.9
		L646.9,567.9z M703.5,557.3c2.1-2,10.2,0.3,24,8.1l0,0c6.6,3.5,15.2,7.3,24.7,10.9c9.6,3.5,15.9,5.6,18.4,5.6l0,0
		c1.1,0,2.5,0.7,3.8,1.7c1.8,1,3.3,2.5,3.8,3.8c1.1,1.4,1.1,2,0.8,2.8c-0.3,0.3-3.8,2-9.6,4.5c-6.1,2.5-10.6,3.2-13.7,1.4
		c-3.3-1.7-7.4-2-13.1-1.7l0,0c-4.6,0.3-8.4-0.7-11.3-2.5c-2.8-1.7-9.1-7.8-18.7-17.6l0,0C703.9,566.1,700.7,560.1,703.5,557.3
		L703.5,557.3z M444.7,557.6c-2.5-7-2.8-11.6-1.1-13.4c1.8-2,3.3-2.5,4.3-1c1.1,1,2.8,1.7,5.3,1.7l0,0c2.1,0,5.6,2.5,10.6,7.8
		c5,5.3,7.8,9.1,8.4,11.9c0.8,2.8,1.1,8.8,1.5,17.6l0,0c0,6.6,0,10.6-0.3,11.9c-0.3,1.3-1.5,2-3.6,2l0,0c-2.8,0.7-5.6,0-8.1-2.5l0,0
		C456.4,588.9,450.8,577.3,444.7,557.6L444.7,557.6z M545.9,474.7c2.8-2.8,6.3-1,11.3,5.3l0,0c3.6,3.5,8.1,8.4,14.1,14.1l0,0
		l9.6,9.1v12.6c0,9.1-0.8,15.1-2.1,18.2c-1.5,3.2-1.8,8.8-1.1,17.2l0,0L578,564l8.8-1.4c13.7-2,21.8-2,24.3,0.7l0,0
		c3.6,3.8-1.5,9.1-15.9,15.4l0,0c-9.1,4.2-15.2,7.8-18,11.3l0,0c-2.5,2-3.8,4.2-4.3,6c-0.3,1.7-0.8,5.3-0.8,10.1l0,0v11.6l14.4,10.1
		l23,15.1c3.6,2.5,5.6,4.2,6.3,4.8c0.8,0.7,0.8,2,0,3.8l0,0c-1.1,2-1.1,3.2-0.8,3.8c0.3,0.8-3.6,1-11.6,1l0,0
		c-5.6,0.3-9.6,0-11.9-0.8c-2.5-0.7-5.3-2.5-8.4-5.3l0,0c-5.3-3.5-7.8-6-7.8-7l0,0c0-0.8-1.1-1.4-2.8-1.7c-1.8-0.3-2.8-0.3-2.8,0.3
		l0,0c0,0.3-0.3,18.2-1.5,53.8l0,0c-1.1,36.6-2.8,55.5-6.1,57.6l0,0c-1.8,1.4-5.6-1.4-11.9-9.1l0,0l-5.3-6.3l5.3-3.8l5.3-3.8
		l0.3-51.3c0.8-34.1,0.8-52,0-54.1l0,0c-1.8-5.3-3.8-3.5-7.1,6l0,0c-2.1,5.6-7.4,13.4-15.5,23.2c-8.1,9.8-16.2,21-24.7,33.3l0,0
		c-13.1,20-23.3,30.5-31,31.6l0,0c-2.1,0-3.3-0.3-3.8-0.7c-0.8-0.3-1.1-1.7-1.5-3.5l0,0c-0.8-6.6,3.6-15.1,13.1-25.3l0,0
		c6.3-6.6,15.5-19.7,27.5-38.6l0,0c8.4-14.4,18-26.7,28.2-36.9l0,0c4.3-4.8,6.6-7.8,6.6-9.1c0-1,0.3-2.8,1.1-4.5l0,0
		c0.3-2-0.3-2.8-2.1-2.5l0,0c-2.5,0.3-8.4,2.8-17.7,7.3l0,0c-7.4,3.5-14.1,5.6-20.5,6.6c-6.4,1-9.9,0.8-10.9-1l0,0
		c-1.1-1,0-3.2,3.3-6c3.6-2.8,8.8-6,15.9-9.5c7.1-3.5,15.9-7.8,26-12.6l0,0l11.9-5.3l1.1-10.6c1.1-7,0.8-15.4-0.3-25.7
		c-1.5-9.8-2.5-19.4-3.3-28.5c-0.8-9.1-1.8-15.1-3.3-18.2l0,0c-1.5-2.8-2.5-6.6-3.6-11.6C545.1,478.5,545.1,475.7,545.9,474.7
		L545.9,474.7z"/>
</g>
</svg>
