<?xml version="1.0" encoding="utf-8"?>
<!-- Generator: Adobe Illustrator 23.0.3, SVG Export Plug-In . SVG Version: 6.00 Build 0)  -->
<svg version="1.1" id="favicon" xmlns="http://www.w3.org/2000/svg" xmlns:xlink="http://www.w3.org/1999/xlink" x="0px" y="0px"
	 viewBox="0 0 3118.1 3118.1" style="enable-background:new 0 0 3118.1 3118.1;" xml:space="preserve">
<style type="text/css">
	.st0{stroke:#F3CF7E;stroke-width:40;}
	.st1{fill:#F3CF7E;stroke:#F3CF7E;stroke-width:20;stroke-miterlimit:10;}
	.st2{fill:#F3CF7E;stroke:#F3CF7E;stroke-width:12;}
</style>
<path class="st0" d="M3004.7,3089.8H113.4c-47,0-85-38.1-85-85V113.4c0-47,38.1-85,85-85h2891.3c47,0,85,38.1,85,85v2891.3
	C3089.8,3051.7,3051.7,3089.8,3004.7,3089.8z"/>
<g>
	<g id="board">
		<path id="moon" class="st1" d="M2960.7,2364.8h-633.6l0,0c102.9-95.8,186.4-215.2,241.4-347.2l0,0h177.9c23.9,0,39.6-20,39.6-44
			s-19.6-39.7-39.6-39.7h-47.5c-3.9,0-8.2-3.9-8.2-8.2c0-3.9,3.9-8.2,8.2-8.2h210c8.2,0,15.7-8.2,15.7-15.7
			c0-7.5-8.2-15.7-15.7-15.7h-210c-23.9,0-39.6,20-39.6,39.7c0,24,19.6,39.7,39.6,39.7h47.5c3.9,0,8.2,3.9,8.2,11.8
			c0,3.9-3.9,8.2-8.2,8.2h-166.1c39.6-107.6,59.3-223.5,59.3-343.6c0-355-193.9-686.5-502.5-858.4c-8.2-3.9-15.7,0-19.6,8.2
			c-3.9,8.2,0,15.7,8.2,20c297.1,167.3,482.9,487,482.9,830.2c0,119.8-23.9,235.3-63.2,343.6h-225.7c-8.2,0-15.7,8.2-15.7,15.7
			s8.2,15.7,15.7,15.7h213.6l0,0c-55,135.9-142.9,251.7-253.6,347.2l0,0H1191c-11.8,0-23.9-11.8-23.9-24c0-11.8,11.8-24,23.9-24
			h71.4c27.9,0,51.8-24,51.8-52.2c0-27.9-23.9-52.2-51.8-52.2H910.3c-118.9-159.8-186.4-355-186.4-567.1c0-32.2,0-63.6,3.9-95.8
			h87.1c23.9,0,43.6-20,43.6-47.9c0-20-15.7-39.7-35.4-44c-3.9,0-8.2,0-11.8,0H692.4c-8.2,0-11.8-8.2-11.8-11.8
			c0-8.2,8.2-11.8,11.8-11.8h15.7h31.8h257.1c8.2,0,15.7-8.2,15.7-15.7c0-7.5-8.2-15.7-15.7-15.7H747.4
			c75.4-251.7,237.5-466.9,463.2-594.6c8.2-3.9,11.8-11.8,8.2-20c-3.9-8.2-11.8-11.8-19.6-8.2c-237.5,131.6-407.9,355-475.4,614.2
			h-23.9c-23.9,0-43.6,20-43.6,44c0,24,19.6,44,43.6,44h118.9c8.2,0,11.8,8.2,11.8,15.7s-8.2,11.8-11.8,11.8H736h-31.8H522.1
			c-8.2,0-15.7,8.2-15.7,15.7c0,8.2,8.2,15.7,15.7,15.7h174.3c-3.9,32.2-3.9,63.6-3.9,95.8c0,211.7,67.5,407.2,178.2,567.1H157.4
			c-8.2,3.9-15.7,11.8-15.7,20s8.2,15.7,15.7,15.7h736.4l0,0c178.2,235.3,459.3,383.3,771.8,383.3c237.5,0,455-87.6,625.7-231.7
			h669.3c8.2,0,15.7-8.2,15.7-15.7C2976.4,2368.7,2968.2,2364.8,2960.7,2364.8z M1665.7,2592.2c-297.1,0-562.5-135.9-732.5-351.1
			l0,0h328.6c11.8,0,19.6,8.2,19.6,20c0,11.8-8.2,20-19.6,20h-71.4c-31.8,0-55,24-55,55.8c0,31.8,23.9,55.8,55,55.8h1049.3
			C2081.4,2520.3,1879.9,2592.2,1665.7,2592.2z"/>
		<path id="xing2" class="st1" d="M2469.6,1753.7c-8.2,0-15.7,8.2-15.7,15.7v20h-19.6c-8.2,0-15.7,8.2-15.7,15.7
			c0,7.5,8.2,15.7,15.7,15.7h19.6v20c0,8.2,8.2,15.7,15.7,15.7c7.5,0,15.7-8.2,15.7-15.7v-19.7h19.6c8.2,0,15.7-8.2,15.7-15.7
			c0-7.5-8.2-15.7-15.7-15.7h-19.6v-20C2485.3,1762,2477.8,1753.7,2469.6,1753.7z"/>
		<path id="xing1" class="st1" d="M1036.7,1877.8c8.2,0,15.7-8.2,15.7-15.7v-20h19.6c8.2,0,15.7-8.2,15.7-15.7s-8.2-15.7-15.7-15.7
			h-19.6v-20c0-8.2-8.2-15.7-15.7-15.7s-15.7,8.2-15.7,15.7v20h-19.6c-8.2,0-15.7,8.2-15.7,15.7s8.2,15.7,15.7,15.7h19.6v20
			C1020.3,1869.6,1028.5,1877.8,1036.7,1877.8z"/>
		<path id="yun" class="st1" d="M387.1,1546h55c8.2,0,15.7-8.2,15.7-15.7c0-8.2-8.2-15.7-15.7-15.7h-55c-8.2,0-15.7,8.2-15.7,15.7
			C371.4,1538.1,374.9,1546,387.1,1546z"/>
	</g>
	<g id="jingsong" transform="translate(376.52884043667825, 376.52884043667825) scale(1, 1.5668855157721222)">
		<path id="song" class="st2" d="M1245,672c0.4,0.4,1.1,0.7,1.8,0.7l0,0l1.4,1.1c-0.4,2.5-1.8,3.9-4.3,3.9l0,0
			c-1.4,0-3.6-0.7-6.8-2.5l0,0c-1.8-0.4-2.5,0-2.5,1.1l0,0l-2.5,11.8c0,0.7-0.4,1.4-0.7,1.8c-0.4,0.4-0.7,0.7-0.7,1.1l0,0
			c-0.4,2.5-0.7,5.7-1.1,9.3c-0.4,3.9-0.7,8.2-0.7,13.2l0,0c0,20.4,0.4,35.8,0.7,45.8l0,0l1.8,31.5v21.8c-2.9,0-6.4,0.4-10.7,1.1
			l0,0c-5,0.7-8.9,1.8-12.5,2.5l0,0c-9.6,1.8-16.1,2.9-20,3.2l0,0c-3.6,0.4-7.5,0.4-11.1,0l0,0l-8.6-2.5h-2.5c0,1.4,0.4,2.1,0.7,3.2
			l0,0c0,0.4,0,1.1,0.4,1.4c0.4,0.7,0,1.1-0.4,1.4l0,0c-2.1,2.9-4.3,4.3-6.8,4.3l0,0l-6.1-0.7c-2.5,0-3.9,1.1-3.9,3.2l0,0l-2.5,0.7
			c0,1.1,0.4,1.8,0.7,1.8l0,0c0.4,0.4,1.1,1.1,1.8,1.8c0.7,0.7,1.1,1.4,0.7,1.8l0,0c0,0.4-1.1,1.8-3.2,3.9l0,0
			c2.1,2.1,3.2,5,3.2,8.6l0,0l-0.7,5c0,2.5,0.7,4.6,2.5,6.1l0,0l1.1,2.5c0,1.8,0.7,3.2,1.8,5c1.4,1.8,2.1,2.9,2.5,3.2l0,0
			c2.5,3.9,5.7,5.7,10,5.7l0,0c2.1,0,4.3-0.4,6.4-0.7s3.9-1.8,5.4-3.6l0,0l1.8-0.7c2.9-0.7,6.4-1.8,10.4-2.5
			c3.9-0.7,7.5-1.8,10.4-2.5l0,0c3.2-1.4,7.1-1.8,11.8-1.8c4.6,0,8.2,0,10.7,0l0,0c2.5-0.7,3.6,0,3.6,2.5l0,0v2.5v34.3
			c0,4.6-0.4,11.1-1.1,19.3l0,0c0,0.7-0.7,5.7-1.8,14.3l0,0c0,0.7-0.4,2.5-1.1,5l0,0c0,3.2-0.4,8.2-1.1,15l0,0
			c0,2.1-0.4,5.7-1.1,10.7l0,0l-0.7,5.7l0.7,6.8c-0.7,12.5-1.8,21.8-2.5,28.2l0,0l-0.7,9.3l-3.2,18.2l-0.7,8.9l-1.1,6.8l-1.1,9.3
			v1.1v7.5c-0.7,4.3-1.4,7.5-1.4,10l0,0c-0.4,3.2-0.7,8.6-0.7,15.7l0,0v16.4l-0.7,10.7c0,0.7,0,1.4-0.4,2.1s0,1.4,0.4,2.1l0,0
			c0.7,1.1,1.1,2.9,1.1,4.3c0,1.8,0,2.9,0,3.6l0,0v5c0,2.1,0.4,4.6,1.4,8.2c1.1,3.2,1.8,5.7,2.1,7.5l0,0c1.8,3.2,3.9,5,6.8,5l0,0
			c4.3-0.7,7.1-2.1,9.3-4.3l0,0c1.4-2.1,2.9-3.2,4.3-3.9l0,0c3.6-2.1,7.1-5.4,10.7-9.3l0,0c4.3-5,6.8-8.9,7.5-11.8l0,0
			c0-1.8,0.4-3.9,1.1-6.4l0,0l2.5-8.2l1.1-10.7c0-0.7,0.4-2.5,1.1-5l0,0c0.4-1.4,0.7-3.2,0.7-5.7l0,0l1.1-15
			c0.4-4.6,1.4-10,3.2-16.4l0,0c0-2.1,0-5,0.4-8.6c0.4-3.6,0.7-6.4,1.4-8.9l0,0c0.4-1.1,0.4-2.1,0.4-3.2c-0.4-0.7-0.4-1.8-0.4-2.5
			l0,0V1026c0-5,0.4-8.6,0.7-10.7l0,0c0.7-4.3,1.1-7.2,0.7-8.9l0,0c-0.4-0.4-0.7-1.1-0.4-2.1c0.4-1.1,0.4-1.8,0.4-2.1l0,0
			c0.7-2.5,1.1-4.3,1.1-5.7l0,0v-10c0.4-3.2,0.4-6.8,0.4-10.4c-0.4-3.6,0-7.2,0.4-10.4l0,0c0.4-2.5,0.7-6.4,0.7-11.8l0,0l0.7-2.5
			l3.9-12.5c0.4-1.8,0.7-4.3,0.7-7.5l0,0v-5c0-0.7-0.4-1.4-0.7-2.1c-0.4-0.7-0.7-1.4-0.7-2.1l0,0c-0.4-1.8-0.7-3.9-0.7-6.8l0,0
			c0-2.9,0.4-5,0.7-6.4l0,0c0.4-2.1,1.1-5,1.4-8.6c0.7-3.9,0.4-7.2-0.4-10l0,0v-0.7l0.7-9.3c0.4-0.7,0.4-1.4,0.4-2.1
			c0-0.7,0-1.1,0.4-1.4l0,0c1.4-1.8,1.8-3.6,1.8-6.1c0-2.1,0-3.9,0-5.4l0,0c0-4.3,2.1-7.5,6.1-10l0,0c2.1-1.4,4.6-2.1,8.2-2.9
			c3.2-0.7,5.7-1.1,6.8-1.4l0,0c0.7-0.4,1.8-0.7,3.2-1.1s2.1-1.1,3.2-1.8l0,0c5.4-3.6,10-6.4,14.3-8.2l0,0
			c5.4-2.1,9.3-7.9,11.8-16.8l0,0c0-0.7-0.4-2.1-1.1-3.6l0,0c-2.5-4.3-6.1-7.2-10.7-9.3l0,0c-7.9-2.9-13.2-4.6-16.1-5l0,0
			c-3.2-0.4-7.5-0.4-12.9,0s-9.3,0.7-12.9,0.7l0,0c-1.8,0-2.9-0.4-3.6-1.1l0,0c-2.9-2.5-3.9-6.1-3.2-10.7l0,0c0-3.2-0.4-5.7-0.7-7.5
			l0,0v-4.3c0-1.8,0.4-3.6,0.7-5.7c0.4-2.1,0.4-3.6,0-4.3l0,0c-0.4-0.7-0.7-2.1-0.7-3.6l0,0c0-1.4,0.4-2.5,0.7-3.9
			c0.4-1.4,0.7-2.9,0.7-3.9l0,0c0-1.4,0.4-3.2,0.7-5.7s0.4-4.6-0.7-6.8l0,0v-1.4c0.7-2.1,1.4-4.6,1.8-7.9c0.4-3.2,1.4-5.4,2.5-7.2
			l0,0c0.4-0.4,0.7-1.1,0.7-1.8l0,0l0.7-12.5c0-5.4-0.7-10.4-2.5-15l0,0c-0.4,0-0.7-0.4-0.7-1.1l0,0c0-5.4-2.9-11.8-8.2-18.9l0,0
			c-2.9-4.3-7.1-7.2-12.5-9.3l0,0c-0.4,0-1.4-0.4-3.2-1.4C1248.9,670.2,1247.1,670.6,1245,672L1245,672z M1046,813.3v-0.7l-13.6,1.1
			c-1.8,0-3.2,0.7-5,2.1c-1.8,1.4-2.5,2.9-2.5,3.9l0,0c0,3.2-0.7,6.8-1.8,10l0,0c-1.8,2.9-2.5,7.5-2.5,13.9l0,0c0,2.9,0.4,5,1.1,6.4
			c0.7,1.4,2.5,2.5,5,3.6l0,0l2.5,1.1c3.2,2.1,5,3.2,5.7,3.2l0,0c6.4,1.8,12.9,4.6,19.3,8.9l0,0c2.1,0.7,3.6,1.1,5,0.7l0,0
			c1.4-0.7,2.9-1.1,5-1.1l0,0c1.8,0,4.3,0.7,7.5,2.5l0,0c1.8,0.7,3.6,1.1,5.7,1.1l0,0c4.3,0,7.1-1.1,9.3-3.2l0,0
			c2.5-2.5,4.3-5.4,5.7-8.9l0,0c2.1-4.6,3.9-7.9,5.7-10.4c1.8-2.1,4.6-3.9,7.9-5.4l0,0c4.3-1.1,7.1-3.6,8.6-7.5l0,0l0.7-1.1
			c4.3-3.2,6.1-7.2,6.1-11.4l0,0c0-2.9-1.1-4.6-3.2-5l0,0c-3.2-0.7-5.7-1.1-7.5-1.1l0,0c-7.9,0-13.6-0.4-17.5-0.7l0,0
			c-2.9,0-7.1-0.4-12.9-1.1c-5.7-0.7-10.4-1.1-14.6-1.1l0,0C1061.7,813.3,1055,813.3,1046,813.3L1046,813.3z M1408.9,830.8l-5.7,2.5
			c-0.7,0.4-1.8,0.7-3.6,0.7c-1.8,0-2.5,0.4-3.6,0.7l0,0c-4.3,1.8-7.1,3.2-9.3,5l0,0c-0.4,0.4-3.2,2.9-8.6,6.8l0,0
			c-1.8,1.1-3.6,2.5-6.1,3.6c-2.5,1.4-4.3,2.9-5,4.3l0,0l-0.7,0.7l-16.1,11.8c-5.7,5.7-8.6,8.9-8.6,8.9l0,0l-0.7,1.1l-7.5,12.5
			c-0.4,0.4-0.7,1.1-0.7,1.8l0,0c1.4,4.3,1.4,8.9,0.7,14.3l0,0c-0.4,0.4-0.7,0.7-0.4,1.1c0.4,0.4,0.4,0.7,0.4,1.1l0,0
			c1.8,1.4,3.6,1.8,5.7,1.8l0,0c2.5,0,5-0.4,8.2-1.1c2.9-0.7,5.4-1.1,7.5-1.4l0,0l3.9-1.8l5-2.5c1.4,0,2.9-0.4,4.3-1.1l0,0l12.9-7.5
			c5-2.5,8.6-4.6,10.7-6.1l0,0c2.1-1.8,6.8-4.6,13.6-8.9l0,0c5-2.5,8.6-4.6,11.1-6.4l0,0c2.5-2.1,4.6-4.3,6.8-6.8l0,0l3.2-10
			c0.7-2.5,1.1-4.6,1.1-6.4l0,0c0-3.9-1.1-7.2-3.2-10.7l0,0c-0.7-1.4-2.5-2.9-5-4.3l0,0L1408.9,830.8z M1475.3,850.8l0.7,5
			c-0.4,1.4-0.7,2.5-1.1,3.9c-0.4,1.4-0.7,3.2-0.7,5.4l0,0c0,1.4,0.4,3.2,1.1,5.7l0,0l1.8,1.8c0.7,0.7,2.5,2.5,4.6,4.6
			c2.1,2.1,5,3.9,7.9,4.6l0,0c5,1.8,8.2,3.2,10,4.3l0,0c2.1,1.8,4.3,2.9,6.8,3.2s4.3,0.7,5,0.7l0,0h22.9c2.9,0,5.7-0.7,8.6-1.8l0,0
			c2.1-0.7,6.1-1.8,11.8-2.5l0,0l2.5-1.1l4.3-2.5c0.7-0.4,1.8-0.7,2.5-1.1s1.8-1.1,2.5-1.8l0,0c0.7-0.4,1.8-1.1,2.9-2.5
			c1.1-1.1,1.8-2.1,2.9-2.5l0,0c0.4-0.4,1.4-1.1,2.9-1.8c1.4-0.7,2.5-2.1,3.6-4.3l0,0c1.1-2.5,1.1-4.3-0.7-5l0,0
			c-1.4-0.7-3.2-2.1-6.1-3.6c-2.9-1.4-5.7-2.5-8.2-2.9l0,0c-6.4-1.8-16.4-3.2-29.6-5l0,0c-2.9-0.4-6.1-0.7-8.9-1.1
			c-3.2-0.4-6.1-0.7-8.9-1.1l0,0c-9.3-1.8-15.7-2.1-20-1.8l0,0h-0.7c-1.4,0-2.9-0.4-4.3-1.1c-1.8-0.7-3.2-1.1-5-1.4l0,0l-3.9-0.7
			c1.4,1.8,0.7,2.5-1.1,2.5l0,0c-0.4,0.4-0.7,0.4-1.1,0.4c-0.4-0.4-0.7,0-0.7,0.4l0,0L1475.3,850.8z M1104.2,921.6l-16.8,7.5
			l-9.3,4.3c-3.6,0.7-8.2,2.1-13.2,3.6c-5,1.4-11.1,2.9-17.5,3.9l0,0c-4.3,1.8-7.9,1.8-10.7,0.7l0,0h-1.8c-1.8,0-3.9,0.7-6.1,1.8
			l0,0c-0.4,0.4-1.1,0.4-1.4,0.4c-0.7-0.4-1.1-0.4-1.4-1.1l0,0c-0.7-1.4-2.5-1.8-5-1.8l0,0c-0.7,0.4-2.1,0.7-4.3,0.7l0,0
			c-3.2,0-4.3,1.4-3.2,4.3l0,0c0,0.7,0,1.1,0,1.1l0,0c-0.4,0.4-0.7,1.4-0.7,2.5l0,0c0,1.1,0.7,2.9,2.5,4.3l0,0c0,0,0.4,0.4,1.1,1.1
			l0,0c2.9,6.8,4.3,12.2,4.3,16.8l0,0l0.7,10c0,6.4-1.1,11.4-3.2,15.7l0,0v2.5l0.7,5.7c0,2.1,0.7,3.9,1.8,5l0,0
			c1.8,1.8,2.9,3.6,3.9,5.7c1.1,2.1,2.5,3.9,3.9,5.7l0,0c1.4,1.1,2.5,1.8,3.6,1.8l0,0h4.3c4.3,0,7.5-1.1,10-3.2l0,0
			c0.7,2.1,1.8,3.2,3.2,3.2c1.1,0,2.1,0,2.5,0l0,0c0.7-0.4,1.4-0.4,1.8-0.4c0.4,0.4,0.7,0.4,1.1,0.4l0,0c2.9,0,4.6-0.4,5.7-0.7l0,0
			c2.5-0.7,5.7-2.5,10-5l0,0c2.1-1.1,3.2-2.5,3.2-3.6l0,0c0-1.8,0.7-3.2,1.8-4.3c1.4-1.4,2.5-2.1,3.6-3.2l0,0
			c2.1-1.1,3.2-3.2,3.9-5.7l0,0c0.4-2.1,1.4-6.1,3.2-12.5l0,0c0-0.7,0-1.4,0.4-2.1c0.4-0.7,0-1.4-0.4-2.1l0,0
			c-0.7-2.1-2.5-4.6-5-8.2l0,0l-1.1-2.5c-0.4-0.7-0.7-1.8-0.7-3.2l0,0c0-1.8,1.1-3.9,3.2-6.8l0,0l8.2-10.7c3.2-4.3,6.1-7.2,8.2-9.3
			l0,0c4.6-4.6,6.4-10,5.7-16.4l0,0v-1.8v-3.9H1104.2z M1178.5,925.2l-1.8,2.5c-2.1,2.1-3.6,5.7-4.3,11.4l0,0
			c-1.8,7.5-3.2,18.9-5,34l0,0c-2.5,15.4-3.6,24-3.6,25.7l0,0l-1.4,15c0,3.9-0.4,8.9-1.1,15.7l0,0c0,2.1-0.4,5.4-1.1,9.3l0,0
			c0,14.7-0.4,25.4-0.7,32.5l0,0c0,5.4-0.4,9.3-0.7,11.8l0,0c-0.7,10.7-1.8,18.6-2.5,23.2l0,0l-3.6,22.5v1.8v7.5
			c-0.7,2.5-1.1,4.3-0.7,5l0,0c0.7,0.7,1.1,1.8,1.1,3.2c0,1.1,0,2.1,0,2.5l0,0v1.1c0,1.8,1.4,3.2,3.9,5l0,0c2.9,1.4,5,1.1,6.8-0.7
			l0,0c1.1-1.4,2.9-2.9,5.4-5c2.1-2.1,4.3-3.6,6.4-5l0,0c0.7,0,1.1-0.4,1.1-1.1l0,0c3.6-3.9,6.1-8.2,7.5-13.2l0,0
			c1.1-3.9,1.8-5.7,1.8-6.1l0,0l1.4-13.2c0.4-2.1,1.1-5.4,2.1-9.7c1.1-4.3,1.4-8.2,1.4-11.4l0,0c0.7-8.2,1.1-15,1.1-20l0,0
			c0.4-4.6,0.7-11.4,0.7-20.7l0,0v-8.2c0-2.5,0.4-6.4,1.4-11.4l0,0c0-4.3,0.4-7.5,0.7-9.3l0,0c0.4-1.8,0.7-3.6,1.1-6.1
			c0.4-2.1,0.7-5,0.7-8.6l0,0c0-6.8,0.4-11.4,1.1-14.3l0,0v-5c0-4.6,0.7-7.9,1.8-10l0,0v-1.8l1.8-17.5l1.8-19.3
			c0-2.1-0.7-3.9-2.5-5.7l0,0c-1.8-2.5-3.2-3.9-5-4.3l0,0c-1.1-0.7-2.9-1.4-5-2.1c-2.1-0.7-3.6-1.1-5-1.4l0,0l-2.5,1.1
			C1181.7,926.2,1180,926.6,1178.5,925.2L1178.5,925.2z M1300.3,929.5l0.7,2.5c0.4,2.1,0.4,3.6-0.4,3.9c-0.7,0.7-1.8,1.1-3.6,1.1
			l0,0h-3.2c-0.7,0-1.4,0.4-1.8,0.7l0,0c-1.8,0.7-2.5,1.8-2.5,2.5l0,0c-2.1,3.2-3.2,5.4-3.6,6.4l0,0c-0.4,1.8-0.7,4.3-0.7,7.5l0,0
			c0,19.3,0.7,38.3,1.8,56.8l0,0l0.7,12.5c-0.4,4.3-0.7,10.4-0.7,18.6l0,0l0.7,35.8c0,1.8,0.4,2.9,0.7,3.6l0,0
			c0.4,2.1,1.4,5.4,3.2,9.3l0,0c1.8,2.9,4.3,4.3,7.5,3.6l0,0c2.1,0,3.6-0.4,5-0.7l0,0c1.4,0,2.1-0.4,2.5-0.7l0,0
			c0.7-0.7,2.1-1.8,3.9-3.2c1.8-1.4,2.5-2.9,2.5-4.3l0,0c0-0.4,0.4-1.1,1.1-1.8l0,0c4.6-3.2,7.5-8.2,8.6-14.3l0,0
			c0.7-7.5,1.1-13.2,0.7-16.8l0,0v-1.8c0-2.9,0.4-5.7,1.1-8.6c0.7-2.9,1.1-5.4,1.1-8.6l0,0c0-6.1-0.4-11.1-0.7-14.3l0,0l-0.7-13.9
			c0-7.9-0.4-13.9-0.7-18.2l0,0c0-3.2-0.4-8.2-1.1-15l0,0l-2.5-10.7c-0.4-3.2-1.4-6.8-3.2-10.7c-1.8-3.9-2.9-6.4-3.6-8.2l0,0
			c-0.7-1.8-2.1-3.6-4.3-5.7l0,0l-5-7.5C1302.8,929.8,1301.7,929.5,1300.3,929.5L1300.3,929.5z M1451.7,1083.2l0.7,1.1l15-5
			c0.7,0,2.1-0.4,3.6-0.7c1.8-0.4,2.9-0.7,3.9-1.1l0,0c2.9-2.1,6.1-3.6,9.3-4.3l0,0c1.4-0.4,3.2-1.1,6.1-2.1s5.4-2.1,7.1-3.6
			c1.8-1.1,3.2-3.2,3.9-5.7l0,0l1.8-1.8c1.4-1.4,3.2-3.2,5.7-6.1c2.9-2.9,4.6-5.7,5.4-8.9l0,0c0.4-0.7,0.7-2.1,0.7-4.3l0,0
			c0-3.9-1.1-7.9-3.2-11.8l0,0c-2.1-4.3-6.1-7.9-12.5-11.4l0,0c-5-2.5-12.5-5.4-22.5-8.9l0,0c-2.9-0.4-4.6-2.1-5-5l0,0
			c-0.4-2.9-2.5-6.1-6.8-9.3l0,0c-7.5-6.1-11.1-9.3-10.7-8.9l0,0c-2.1-1.8-3.9-2.5-5.4-2.9c-1.4-0.4-2.9,0.4-4.6,2.1l0,0
			c-1.8,2.5-3.6,2.9-5.7,1.1l0,0c-1.1-0.7-2.9-0.7-5,0.7l0,0c-0.4,0.7-2.1,2.1-5.7,4.3l0,0l-8.2,5.7l-7.5,5.7
			c-1.4,1.4-3.2,2.9-5.7,4.3l0,0c-5,2.5-8.2,5.4-10,8.2l0,0l-3.6,3.6l-10.7,8.9c-0.4,0.4-0.7,1.1-0.7,1.8l0,0
			c-0.7,3.2-1.8,5.7-2.5,7.5l0,0c-0.7,2.1-0.7,4.6,0.7,7.5l0,0c1.4,2.5,1.4,5,0,7.5l0,0c0,0.4-0.4,1.8-1.4,4.3
			c-1.1,2.5-1.1,5-0.4,7.5l0,0v8.2v2.5c0,5.4,2.1,8.9,6.1,10l0,0l1.1,0.7c1.4,2.1,3.6,3.2,6.8,3.2l0,0c4.3,0.4,10.7,0.7,19.3,0.7
			l0,0c2.1,0,3.9-0.4,5.7-0.7c1.8-0.4,3.2-0.7,4.3-1.1l0,0c5-0.7,8.6-1.1,10.7-1.1l0,0C1437.5,1084.6,1443.5,1083.9,1451.7,1083.2
			L1451.7,1083.2z M1442.5,1047.4l-10.7,1.1l-1.8-0.7l0.7-2.5c0.7-0.4,1.8-1.1,2.5-2.1c0.7-1.1,1.8-1.8,3.2-2.1l0,0
			c2.1-0.7,5.7-3.6,11.1-8.2l0,0c1.8-1.8,3.6-2.5,5.7-2.5l0,0c1.8,0,3.2,0.7,5,1.8l0,0l10.7,8.2l1.8,2.5c-0.4,0.4-1.1,0.7-1.4,1.1
			c-0.7,0.4-1.4,0.7-2.1,0.7l0,0l-24.3,3.2v-0.4H1442.5z"/>
		<path id="jing" class="st2" d="M1200,263.7c0.4-0.7,1.1-1.8,1.8-2.9c0.7-1.1,1.4-2.5,1.8-3.9l0,0l1.8-7.5
			c0.4-3.2,0.7-8.2,0.7-14.3l0,0c0-2.1,0.4-3.6,0.7-4.3c0.7-0.7,2.1-1.4,4.6-1.8l0,0c1.1-0.4,4.3-1.1,8.9-1.4
			c4.6-0.7,8.6-2.1,11.4-4.6l0,0c0.4-0.7,1.8-1.1,4.3-1.1l0,0h1.8c6.1,0,11.4-2.5,15.7-7.5l0,0c1.8-0.7,2.9-1.1,3.6-1.1l0,0l6.8-1.8
			c5-2.1,7.9-5,8.2-8.6l0,0c0.7-3.9,0.4-6.4-1.4-8.2l0,0c-1.1-0.7-1.8-1.8-1.8-3.2l0,0c-0.4-2.5-1.1-4.3-1.4-5.4
			c-0.7-1.1-1.8-1.8-3.9-2.1l0,0c-1.8,0-3.6-0.4-6.1-0.7c-2.5-0.4-4.6-0.4-6.1,0l0,0l-3.6-0.7h-3.2c-1.4,0-2.5,0.4-3.6,0.7
			c-1.1,0.4-2.1,0.7-3.6,0.7l0,0c-6.8-1.4-10.7-1.8-11.8-1.1l0,0h-3.6l-13.6-0.7c-0.4,0-1.1,0-1.4-0.4c-0.7-0.4-0.7-0.4-0.7-1.1l0,0
			c-0.4-3.9-0.7-9.3-0.7-16.4l0,0c0-1.4,0.4-2.1,1.1-2.5c0.7-0.4,1.4-0.7,1.8-0.7l0,0c4.3,0,7.1-0.4,8.6-0.7l0,0
			c8.6-2.9,16.1-4.3,21.8-4.3l0,0c3.2,0,6.1,0.4,8.2,0.7l0,0h3.6c3.2-0.7,5.7-1.8,7.5-2.5l0,0l4.3-3.2c1.8-0.7,3.6-1.8,6.1-2.9
			c2.5-1.1,5.4-2.1,8.6-2.9l0,0l10-3.2c1.8-0.7,3.6-1.4,5.4-2.1c1.8-0.7,3.9-1.4,6.1-2.1l0,0c0.7-0.4,1.4-1.1,2.1-2.1
			c0.7-1.1,1.4-1.8,2.1-2.1l0,0c-0.4,0-1.8-1.1-3.9-3.2l0,0c-2.5-1.8-2.9-3.9-1.1-6.8l0,0c0.7-1.4,0.7-2.5,0-3.6l0,0
			c0-0.4-0.4-0.7-1.1-1.1c-0.7-0.4-1.4-0.4-1.8-0.4l0,0c-2.5-0.4-5.7-0.7-9.3-0.7s-6.8-0.4-9.3-0.7l0,0c-7.9-1.4-16.1-1.8-25-1.8
			l0,0c-7.9,0-13.6,0.4-17.5,0.7l0,0c-11.4,0.7-20,1.4-25.4,1.4l0,0c-1.4,0.4-2.1,0.4-2.9,0.4c-0.7-0.4-1.1-1.1-1.4-2.9l0,0v-14.3
			c0-7.5-3.9-13.9-11.8-18.9l0,0c-1.1-0.4-2.5-1.1-3.9-1.8c-1.4-0.7-3.2-1.8-5.4-2.5l0,0c-2.5-0.7-4.6-1.1-6.1-1.1l0,0
			c-2.5,0-5.4,0.4-8.2,1.4c-2.9,1.1-5.4,1.8-7.5,2.1l0,0c-2.1,0.4-3.6,2.1-5,5l0,0c-0.4,0.7-0.4,1.8,0,2.9c0.4,1.1,0.7,1.8,1.1,2.1
			l0,0c3.6,1.4,5.7,3.6,5.7,6.8l0,0c0,9.7,0.4,16.8,0.7,21.5l0,0c0,2.1-0.7,3.2-2.5,3.2l0,0c-2.5,0-6.1,0.4-10.7,0.7
			c-4.6,0.4-8.2,0.7-11.1,1.4l0,0c-7.9,0.7-15.7,2.1-22.9,3.6l0,0l-15.7,2.5l-6.1,0.7c-1.4,0.4-2.9,0.7-5,0.7l0,0
			c-7.1,0-12.1-2.5-15-7.5l0,0c-1.1-2.5-3.2-3.9-6.1-3.9l0,0c-2.1,0-4.3,1.1-6.1,3.2l0,0c-0.7,0.7-1.4,1.1-1.8,1.1l0,0
			c-1.4,0.4-2.1,1.4-2.5,2.5c-0.4,1.4-0.4,2.5,0.7,3.9l0,0c0,0.7,0.4,2.1,1.1,3.6c0.7,1.8,0.4,3.2-0.4,5l0,0
			c-0.4,0.7-0.7,1.4-0.4,2.1c0.4,0.7,0.4,1.1,0.4,1.4l0,0c2.9,7.2,4.3,13.2,4.3,18.6l0,0c0,2.1,0.4,3.6,0.7,4.3l0,0
			c0.4,0.7,1.4,2.9,2.9,6.1c1.4,3.2,3.6,5.4,6.4,6.4l0,0c2.9,2.5,6.1,3.2,10,1.8l0,0c3.2-1.8,7.9-3.2,13.6-5l0,0
			c3.2-1.1,7.1-2.5,11.8-3.9c4.6-1.4,7.9-2.5,10-3.6l0,0c1.4-0.4,3.6-1.1,7.1-1.8c3.6-0.7,6.8-1.1,10.4-1.1l0,0
			c5.7,0,10,0.4,12.9,0.7l0,0l13.2,0.7c2.5,0.7,3.6,2.1,3.6,3.6l0,0v11.4v1.1c0,2.5-1.4,3.9-4.3,4.3l0,0c-9.6,0.7-18.6,2.1-27.5,3.9
			l0,0l-15,1.8c-7.9,1.4-14.6,2.5-20.4,3.9c-5.7,1.4-10.7,2.5-15,3.6l0,0l-2.5,0.7c-2.1,0-3.9-1.1-5.7-3.6l0,0
			c-1.8-2.1-3.2-3.6-5-4.3l0,0c-1.8-0.7-4.6-1.1-8.6-1.1l0,0c-2.9,0-5.4,0.4-6.8,0.7l0,0c-3.6,1.1-5.4,3.6-5,6.8l0,0
			c0.4,1.1,1.1,3.6,1.8,6.4c0.7,3.2,2.5,5.4,5,6.4l0,0c-0.7,4.3-1.1,7.2-1.1,9.3l0,0c0,1.4,0.4,3.2,1.1,5.7l0,0
			c0.4,0.4,1.1,2.9,1.8,6.8l0,0c0.7,1.1,1.4,2.9,2.1,5.4c0.7,2.1,1.1,3.9,1.4,5.4l0,0c0.4,0.4,1.1,0.4,1.4,0.4
			c0.7-0.4,1.1,0,1.4,0.4l0,0l5.7,1.8l2.5,1.1c2.5-0.7,6.4-1.8,11.4-3.2c5.4-1.1,9.6-2.5,13.2-4.3l0,0l17.9-4.3
			c5.7-1.8,10.4-2.9,13.6-3.2l0,0c1.8,0,5.7,0,12.9,0c7.1,0,13.2-0.7,19.6-1.8l0,0c1.8,0,2.5,1.1,3.2,3.2l0,0
			c0,3.9,0.4,8.2,1.1,13.2l0,0l1.8,18.2c-13.2-0.4-28.2,1.1-44.6,4.3l0,0l-26.1,4.3c-21.8,5.7-33.9,8.9-36.1,9.3l0,0
			c-0.7,0.4-2.1,0.4-3.6,0.4c-1.8-0.4-2.9-0.4-3.6-0.4l0,0c0-1.4,0.4-2.1,0.7-2.5l0,0c-6.1-2.5-10-3.9-11.1-4.3l0,0
			c-2.1-0.4-4.6-0.7-8.2-0.7l0,0c-1.8,0-2.5,1.4-2.5,4.3l0,0v13.9c0,0.7-0.4,1.1-1.1,1.1l0,0c-1.8,3.2-1.8,6.8-0.7,10l0,0
			c0.4,1.8,0.7,3.2,0.4,4.3c-0.4,1.1-0.4,2.5-0.4,3.6l0,0c0,3.9,1.8,6.4,5.7,8.2l0,0c5,1.8,8.6,2.5,10.7,2.5l0,0
			c3.2,0,7.1-1.1,11.1-3.2l0,0c3.2-0.7,5.7-1.8,7.5-2.5l0,0c2.5-1.8,6.1-2.5,10.7-2.9c4.6-0.4,7.9-0.7,10-1.4l0,0
			c5.4-2.1,9.3-3.2,11.8-3.9l0,0c13.6-1.8,23.2-2.9,28.6-3.2l0,0c12.1-1.4,23.2-1.8,33.6-1.8l0,0l50.4-1.4c10.4,0,25-0.4,44.3-1.1
			l0,0c2.5,0,4.6-0.7,6.1-2.5c1.8-1.8,2.5-3.6,2.5-6.1l0,0V292c5,0.7,8.2,1.1,10,0.7l0,0l22.9-1.8l2.5-1.8c0-0.7,0-2.1,0.4-3.9
			c0.4-1.8-0.4-3.2-1.4-3.9l0,0c-1.8-1.1-2.5-2.5-2.1-3.6c0.4-1.1,1.1-2.5,2.1-3.9l0,0l1.8-3.9c-1.8-0.4-3.2-0.7-5-1.1
			c-1.8-0.4-3.2-0.7-5-1.1l0,0c-6.8-1.8-14.6-2.5-24.3-2.5l0,0h-55.4H1200V263.7z M1436.4,305.2c0,2.5,0.4,5.4,1.4,8.9l0,0
			c0,3.9,0.4,10.4,1.1,19.3l0,0c0,5.7,0.4,11.1,0.7,15.7c0.4,4.6,0.7,8.6,1.1,11.8l0,0c0,2.5-1.1,3.9-3.6,3.9l0,0
			c-14.6,2.5-32.9,6.1-54.6,10.7l0,0l-33.6,5.7h-4.3c-4.6,0-7.9-1.1-10-3.6l0,0c-1.8-1.4-3.6-1.8-6.1-1.8l0,0
			c-1.8,0.4-2.9,1.4-3.6,3.6c-0.7,1.8-0.7,3.6-0.4,4.6l0,0c1.8,6.8,3.2,12.2,5,16.4l0,0l0.7,1.8c4.6,4.6,10,6.8,16.8,6.8l0,0
			c2.9,0,5.4-0.4,6.8-0.7l0,0c5.4-1.8,16.1-4.3,32.5-8.2l0,0c20.7-4.3,36.1-7.5,46.4-10l0,0l2.5,1.8c0,3.2-0.4,5.7-0.7,6.8l0,0
			c0,0.7-1.1,9.3-3.6,25.7l0,0l-2.1,14.7c-0.4,2.9-1.4,8.9-2.9,18.6c-1.4,9.3-3.6,17.9-5.7,26.1l0,0c-0.7,2.1-1.8,5.4-3.2,9.7
			c-1.1,4.3-2.9,8.2-5,11.1l0,0c-5,6.8-11.8,12.9-20,18.9c-8.2,6.1-13.6,10-15.4,11.8l0,0c-3.2,2.1-7.1,4.3-11.1,6.4
			c-3.9,2.1-7.9,5-12.1,7.9l0,0l-38.6,29c-0.7,0.7-5.4,4.3-13.6,10l0,0l-3.2,4.3l0.7,0.7c0.4,0,1.1-0.4,1.4-1.1
			c0.7-0.7,1.8-1.1,3.6-1.4l0,0c0.7-0.4,1.4-0.4,1.8,0l0,0v1.8l-0.7,1.8l18.6,2.5c-1.4,2.5-0.4,3.9,2.5,3.9l0,0
			c2.1,0,3.6-0.4,4.3-0.7l0,0c1.1-0.7,2.5-1.1,3.6-0.7s1.8,1.1,2.1,1.8l0,0c1.1,2.1,2.5,3.2,4.3,3.2l0,0c2.9,0.4,6.8,1.4,11.8,3.2
			l0,0l8.6,4.3c2.5,1.4,3.6,2.1,3.6,3.2l0,0c0,1.4,0.7,2.1,2.1,2.9c1.4,0.7,2.5,1.1,2.9,1.4l0,0c0.4,0,1.4,0.4,3.2,1.1
			c1.8,0.7,3.2,0.4,5-0.4l0,0l6.8-2.5c9.6-0.7,16.8-1.8,21.8-3.2l0,0c5.7-2.1,11.8-5.4,17.9-9.3l0,0c3.2-2.1,7.5-5.7,13.2-11.4l0,0
			c1.1-1.1,3.2-2.9,5.7-4.6c2.5-1.8,4.6-3.9,5.7-6.1l0,0c7.5-8.2,13.6-16.1,18.6-23.2l0,0c3.2-5,5.7-9.7,7.5-14.3l0,0
			c4.3-9.7,5.7-23.2,5-41.5l0,0c-0.4-5-1.4-13.9-3.2-26.8l0,0v-4.3c0.4-5,0.7-13.2,0.7-24.3l0,0c0-5,0.4-8.9,0.7-11.8l0,0
			c0-0.7,0-2.5,0.4-4.6c0.4-2.1,0-4.3-0.4-6.1l0,0c0-12.2,1.8-22.5,5-31.5l0,0c1.4-2.5,2.5-4.3,3.9-5l0,0c0.7-0.4,2.1-0.7,3.6-0.7
			l0,0c9.6,0,17.1-2.9,22.9-8.6l0,0c0.4,0,0.7-0.4,1.1-0.7c0.4-0.4,0.4-0.7,1.1-0.7l0,0c3.2-0.7,8.6-1.8,16.1-2.5l0,0
			c2.5-0.4,3.9-1.8,4.3-4.3l0,0c0-1.1-0.4-2.5-0.7-3.6c-0.4-1.4-0.7-2.1-0.7-3.2l0,0c0-1.8,0.7-3.2,2.5-4.3l0,0
			c-0.7-0.4-2.1-1.1-4.3-2.5l0,0c0.7-0.4,1.4-0.7,2.1-1.1c0.7-0.4,1.1-0.7,1.4-1.1l0,0c2.1,0,3.9-1.1,5.7-3.6l0,0l4.3-7.5
			c2.1-3.9,3.9-7.2,5.7-10.7c1.8-3.2,3.2-6.4,5-9.3l0,0c2.9-5.7,5.4-14.7,6.8-26.8l0,0l3.2-4.3c0.4-0.4,1.1-2.1,1.4-5
			c0.7-2.9,0.7-5,0.4-6.4l0,0v-0.7c-1.8-0.4-2.1-2.1-1.1-5l0,0l0.7-16.4c0-8.2-1.1-21.8-3.6-40l0,0c0-0.7-0.7-3.2-1.8-6.8l0,0
			c-1.4-2.1-2.9-3.9-5.4-5.4c-2.1-1.4-4.6-2.9-7.1-3.9l0,0c-3.6-0.7-8.6-1.8-14.3-2.5l0,0c-21.1-5.4-38.6-7.2-52.9-5.7l0,0
			l-16.1,0.7l6.1-10.7c8.6-18.9,13.9-32.9,16.1-41.8l0,0c1.8-5,2.5-8.6,2.5-11.4l0,0c0-3.2-0.4-5.7-1.1-7.5l0,0
			c-0.4-2.9-2.1-5.7-5-8.2c-2.9-2.5-5-4.3-6.1-5.7l0,0l-1.8-0.7l3.2,3.2l-1.1,1.8l-4.3-3.2c-3.2-3.2-7.1-4.6-11.1-4.3l0,0
			c-8.2,1.8-17.9,3.2-28.6,4.3l0,0c-1.4,0.4-2.9,0.7-4.3,0.7l0,0c-1.4,0-2.1-0.4-2.9-1.1c-0.7-0.7-1.4-2.1-2.1-3.6l0,0l-1.8-2.5
			c-2.5-2.5-5-3.9-8.2-3.9l0,0c-2.1,0-3.6,0.4-5,1.1l0,0c-0.4,0.4-1.4,0.7-3.2,0.7l0,0c-0.4,0.4-3.2,1.1-8.2,1.8l0,0
			c-0.4,0-0.7,0.4-1.4,1.1c-0.4,0.7-0.7,1.1-0.7,1.4l0,0c0.4,0.7,0.7,2.1,0.7,3.6l0,0c0,2.9-1.4,6.4-4.3,10l0,0
			c-0.7,1.8-2.1,3.6-4.3,6.1c-2.1,2.1-3.6,4.3-5,6.1l0,0l-18.6,28.2l-2.5,5c0.7-0.4,1.8-1.1,2.5-1.4c0.7-0.7,1.4-0.7,1.8-0.4l0,0
			c3.2,0,6.4-1.4,9.6-3.9c3.2-2.9,5.4-4.3,6.4-5.4l0,0l13.6-7.5c1.8-0.7,3.6-1.8,5.7-3.2c2.1-1.1,5-2.5,7.9-4.3l0,0
			c2.5-1.8,4.6-3.2,6.1-5c1.8-1.8,3.2-2.9,4.3-3.6l0,0c0.7-0.7,1.8-1.8,3.2-2.9c1.4-1.1,2.5-1.8,3.6-2.1c1.1-0.4,2.5-0.4,3.9,0.7
			l0,0c2.5,0.4,4.3,0,5-1.1l0,0c1.8-2.5,4.6-5,9.3-7.5l0,0l1.8-1.1c1.4-1.8,2.5-2.1,3.9-1.8s2.5,0.7,2.9,0.7l0,0
			c3.6,1.8,5.7,3.9,5.7,6.4l0,0c0,0.7,0,2.1-0.4,3.6c-0.4,1.4,0,2.5,0.4,3.6l0,0c0.4,1.1,0.7,2.9,0.7,5l0,0c0,3.9-1.1,7.9-3.2,11.8
			l0,0c-2.1,7.9-6.4,18.9-13.2,33.3l0,0c-1.8,3.2-3.6,6.8-5.7,11.1c-2.1,3.9-3.9,7.2-5.4,9.7l0,0c-2.1,2.1-5.4,3.6-10,4.3l0,0
			l-32.5,6.8c-3.2,0.4-6.8,1.1-10,1.4c-3.2,0.7-6.4,1.1-9.3,1.4l0,0h-2.5c-2.1,0-3.6-0.7-5-1.8l0,0c-4.3-2.5-7.1-4.3-9.3-5l0,0
			c-1.8,0-2.9,0.4-3.2,0.7l0,0c-2.9,6.8-4.3,12.2-4.3,16.8l0,0c0,2.9,0.4,6.4,0.7,10c0.4,3.9,0.7,6.8,1.1,8.6l0,0
			c0.4,2.5,1.8,4.6,4.3,6.4s5,2.1,7.5,1.1l0,0c4.6-1.8,9.3-3.9,14.3-6.8l0,0c11.8-5.4,22.5-8.9,32.5-10l0,0
			c12.1-1.1,23.9-3.6,36.1-6.8l0,0c5-2.1,10.4-3.6,16.1-4.3l0,0c3.2-0.4,8.6-0.7,15.7-0.7l0,0c0.7,0,2.1-0.4,3.9-0.7s3.2-0.4,3.9,0
			l0,0c0.7,0,2.1-0.4,3.6-0.7c1.8-0.4,3.2,0.4,4.3,1.8l0,0v1.1h-9.3v1.1c0.4-0.4,1.1-0.7,2.5-0.7l0,0c1.4,0,2.9,0.4,5,0.7
			c2.1,0.4,3.6-0.4,5-1.8l0,0l3.6,1.8c5.4,1.4,13.2,2.1,23.6,3.2l0,0l1.1-0.7l-5-1.1c0.7-0.4,2.9-1.4,5.7-2.5l0,0l1.8,0.7
			c0.4,1.4,1.4,3.2,2.9,6.1c1.4,2.9,1.8,5.7,1.4,8.2l0,0v4.3c0.4,2.5,0.7,6.4,0.7,11.8l0,0c0,3.9-0.4,10.4-1.1,19.3l0,0h-5.7
			c-7.1,0-12.1,0.4-15.7,0.7l0,0l-37.1,0.7c-1.4,0-2.1-0.7-3.2-1.8l0,0l-1.8-14.3c-2.9-13.9-8.9-23.2-17.9-29l0,0l0.7-2.5
			c-3.2,0.7-7.5,2.1-12.9,3.6c-5.4,1.4-9.3,2.9-12.9,3.9l0,0c0,0,0.4,0.4,1.4,1.1l0,0c-2.1,0.7-3.2,1.8-3.9,2.9
			c-0.4,1.1,0,1.8,1.1,2.9l0,0c1.8,0.7,3.2,2.1,3.9,3.9c1.1,1.8,1.8,3.9,2.9,6.1l0,0c0.7,3.2,1.8,7.9,2.5,13.9
			c0.7,6.1,1.8,11.1,3.2,15.4l0,0c-2.5,1.1-6.1,2.1-11.1,3.2l0,0l-34.6,8.9l-26.8,5.7c-1.4,0.4-2.9,0.7-5,0.7l0,0
			c-3.6,0-6.8-1.4-9.3-3.9l0,0c-2.1-1.1-3.6-0.7-4.3,1.1l0,0l-0.7,1.8c-2.1,0.7-3.2,2.9-3.2,5.7l0,0l0.7,5c0.4,2.5,2.5,6.8,6.8,12.5
			l0,0c2.1,2.9,4.6,4.3,7.5,4.3l0,0c2.5,0,5-0.4,7.9-1.4c2.9-1.1,5-1.8,6.4-2.1l0,0c3.2-1.4,7.1-2.9,11.8-4.3
			c4.6-1.4,8.6-2.9,11.8-3.6l0,0C1404.2,313.4,1418.9,309.5,1436.4,305.2L1436.4,305.2z M1482.1,225.5v-1.1
			c-2.5,0.4-6.1,0.7-10.7,1.1c-4.6,0.4-8.6,1.4-11.8,2.5l0,0v0.7C1465,228.3,1472.5,227.3,1482.1,225.5L1482.1,225.5z M1527.5,303.4
			l-3.2,37.5c-0.4,2.9-2.1,6.1-5.7,9.3c-3.2,3.2-6.8,5.4-10,5.7l0,0c-10.7,0.7-18.9,1.8-24.3,2.5l0,0c-2.9,0-4.3-1.1-4.3-3.2l0,0
			l-2.5-18.9c-0.7-10-1.8-17.2-2.5-21.8l0,0l-1.1-10.7c-1.4-2.9,0-4.3,3.6-4.3l0,0c2.5,0,5,0.4,7.9,0.7c2.9,0.4,5.4,0.7,7.9,0.7l0,0
			c6.1,0,11.8-0.4,16.4-0.7c4.6-0.4,8.9-0.7,12.1-1.1l0,0h3.2c1.4,0,2.1,0.4,2.1,1.1C1527.5,300.6,1527.5,301.6,1527.5,303.4
			L1527.5,303.4z M1051,568.3l8.2-0.7c2.9,0,4.6,1.4,5,3.9l0,0c0,0.4,0.4,0.7,1.1,1.1c0.7,0.4,1.1,0.4,1.4,0.4l0,0h16.1
			c0.4,0,0.7,0,1.1-0.4c0.4-0.4,0.4,0,1.1,0.4l0,0c1.8,1.1,3.6,1.1,6.1-0.7l0,0c5-3.2,8.9-5.4,11.8-5.7l0,0
			c3.6-1.1,7.5-4.6,11.8-10.7l0,0c3.2-8.2,5-14.7,5.7-19.3l0,0c0-11.8,0.4-20.7,0.7-26.8l0,0c0-6.1,0.4-15.7,1.1-28.2l0,0
			c1.8,0.4,3.2,0.7,4.6,1.1c1.4,0.4,2.9,0.7,3.9,1.4l0,0c3.2,3.2,8.2,5,15,5l0,0c10.4-0.7,17.9-2.5,22.9-5l0,0
			c2.1-1.1,7.1-3.2,15-6.1l0,0c0.7-0.4,2.1-1.1,4.3-1.8c2.1-0.7,3.6-1.8,5-2.5l0,0c0.7-0.7,6.8-7.9,17.5-21.5l0,0h1.1
			c0,2.1,0.4,5,0.7,8.6c0.4,3.6,0.7,6.4,1.1,8.9l0,0c0,26.5,0.4,45.8,0.7,58.3l0,0c0,2.1-0.7,3.9-1.8,5c-1.4,1.4-2.9,1.8-5,1.8l0,0
			h-3.6c-0.7,2.1-1.8,3.2-2.5,3.6l0,0c-0.7,0.7-1.1,1.4-1.1,2.1c0.4,0.7,0.7,1.1,1.4,1.4l0,0c2.5,0.7,4.6,1.8,6.8,2.9
			c2.1,1.1,3.9,2.1,5.7,2.9l0,0l0.7,1.1l5,10l2.1,3.2c0-1.1,0-2.1,0.4-2.9c0.4-0.7,0.4-1.1,0.4-1.4l0,0c0.4-0.4,1.1-1.8,2.5-4.3l0,0
			c1.8,0.7,2.9,1.8,3.2,2.5l0,0c0.7,0.4,1.4,0.7,2.1,1.1s1.1,0.7,1.4,1.1l0,0c2.5,1.8,4.3,1.4,5.7-0.7l0,0c0.7-1.8,1.1-3.2,1.1-4.3
			l0,0c1.8-4.6,3.2-11.8,5-21.8l0,0c0.4-0.7,1.1-4.6,1.8-11.8l0,0c3.2-18.2,4.6-31.8,3.9-40.8l0,0c-0.4-7.5,0.4-18.9,1.8-34l0,0
			l1.8-16.4c0.7-10.7,1.1-18.9,1.1-24.3l0,0c0.7-5,1.1-12.5,1.1-22.5l0,0v-5.7c0-7.5-1.1-12.9-3.2-16.4l0,0
			c-0.4-0.7-1.1-2.5-2.5-5.4c-1.1-2.9-2.5-5-4.3-6.4l0,0c-5-3.9-10-5.7-15-6.4l0,0c-3.6-0.4-7.5-0.7-11.1-1.1
			c-3.6-0.4-7.5-0.7-11.1-1.1l0,0c-2.5-0.7-6.1-1.1-11.1-1.1l0,0c-6.1,0-12.1,0.7-17.5,1.8l0,0c-5,0.7-19.6,4.3-43.6,10.7l0,0
			c-9.3,2.5-21.4,7.2-36.8,14.3l0,0c-5,2.1-8.6,5-11.1,8.9l0,0c-1.4,1.8-1.8,2.9-1.1,3.6c0.4,0.7,1.4,1.8,3.2,3.2l0,0
			c0.4,0,1.1,0.4,2.5,0.7c1.1,0.4,2.1,0.4,3.2-0.7l0,0h0.7c2.5,0,5,0.4,8.2,1.1c3.2,0.7,5.4,0.7,7.5,0.4l0,0
			c10.7-1.1,21.1-3.2,30.4-5.7l0,0c11.1-2.5,21.4-5.7,30.4-10l0,0c3.2-1.8,7.1-2.9,11.8-3.2s7.5-0.7,8.6-0.7l0,0
			c2.1,0,4.6,0.4,7.9,1.1c3.2,0.7,5.7,1.1,8.2,1.4l0,0c2.5,0.4,3.9,1.8,3.9,4.3l0,0c0.7,8.2,1.1,14.7,1.1,18.9l0,0
			c0,9.3-0.4,16.1-0.7,20.7l0,0l-0.7,21.5c0,6.8-2.9,11.4-8.2,14.3l0,0l-3.9,1.8c-15,8.9-30,13.9-45.4,15l0,0l-17.9,3.2H1125l2.5-24
			c0.4-2.5,1.1-4.3,2.1-5.4c1.1-1.1,2.9-2.1,5.4-2.9l0,0c18.6-2.5,31.8-4.6,39.6-6.8l0,0c2.9-0.7,8.2-3.2,16.1-6.8l0,0
			c2.9-2.5,6.1-4.6,9.6-6.1c3.6-1.4,5.7-2.5,6.4-2.9l0,0c0.4,0,1.4-0.4,3.2-1.1l0,0c-1.8-3.9-4.6-5.7-8.6-5.7l0,0
			c-7.9,0-13.9-0.4-17.9-0.7l0,0c-1.1,0-2.5,0-3.9-0.4c-1.4-0.4-3.2,0-5.4,0.4l0,0c-3.2,0.4-8.2,1.1-14.6,2.1s-11.8,2.1-16.4,3.6
			l0,0l-11.8,1.8c-0.4-0.4-0.7-1.1-0.7-1.8l0,0c0-5.4-2.1-9.7-6.8-13.2l0,0c-2.1-0.7-4.3-2.1-6.4-3.6c-2.1-1.4-4.3-2.5-6.4-3.6l0,0
			c-1.4-0.4-3.2-0.7-6.1-0.7l0,0c-0.4,0-1.1,0.4-1.4,1.1c-0.7,0.7-1.1,1.1-1.4,1.4l0,0c0,1.1-0.4,1.8-1.1,1.8l0,0
			c-2.5,0.4-4.3,2.1-5,5l0,0c2.9,2.1,4.6,4.3,5.7,6.8l0,0c2.5,2.5,3.6,5.4,3.6,8.9s0,5.7,0,6.4l0,0l-7.1,56.8
			c-2.5,19.3-4.6,34.7-6.1,46.5l0,0c-1.1,10-5,17.2-11.8,21.8l0,0c-2.5,2.1-4.6,3.9-6.8,5c-2.1,1.4-3.9,2.5-5.7,3.9l0,0
			c-1.8,0.7-3.6,1.8-5.7,2.9c-2.1,1.1-4.3,2.1-6.8,3.6l0,0c-1.4,0-1.8,0.4-1.8,1.1l0,0c-0.4,1.1-0.7,2.5-1.1,3.9
			C1052.1,565.1,1051.4,566.9,1051,568.3L1051,568.3z"/>
	</g>
</g>
</svg>
